Merienda-Bold.otf.ufo
<glyph name="parenright" format="1">
  <advance width="359"/>
  <unicode hex="0029"/>
  <outline>
    <contour>
      <point x="-50" y="-121" type="curve" name="hr00"/>
      <point x="-50" y="-130"/>
      <point x="-38" y="-140"/>
      <point x="-27" y="-143" type="curve"/>
      <point x="176" y="-94" smooth="yes"/>
      <point x="309" y="114" smooth="yes"/>
      <point x="309" y="357" type="curve" smooth="yes"/>
      <point x="309" y="569"/>
      <point x="202" y="743"/>
      <point x="24" y="787" type="curve"/>
      <point x="13" y="784"/>
      <point x="-1" y="774"/>
      <point x="-3" y="765" type="curve"/>
      <point x="62" y="718" smooth="yes"/>
      <point x="170" y="592" smooth="yes"/>
      <point x="170" y="362" type="curve" smooth="yes"/>
      <point x="170" y="174"/>
      <point x="99" y="-16"/>
    </contour>
  </outline>
</glyph>
<glyph name="asterisk" format="1">
  <advance width="522"/>
  <unicode hex="002A"/>
  <outline>
    <contour>
      <point x="428" y="562" type="curve" name="hr00"/>
      <point x="472" y="586" smooth="yes"/>
      <point x="492" y="621" smooth="yes"/>
      <point x="492" y="644" type="curve" smooth="yes"/>
      <point x="492" y="694"/>
      <point x="397" y="721"/>
      <point x="351" y="733" type="curve"/>
      <point x="386" y="759"/>
      <point x="427" y="775"/>
      <point x="477" y="784" type="curve"/>
      <point x="464" y="851" smooth="yes"/>
      <point x="426" y="887" smooth="yes"/>
      <point x="405" y="887" type="curve" smooth="yes"/>
      <point x="363" y="887"/>
      <point x="318" y="829"/>
      <point x="289" y="779" type="curve"/>
      <point x="277" y="810" smooth="yes"/>
      <point x="272" y="839" smooth="yes"/>
      <point x="272" y="868" type="curve" smooth="yes"/>
      <point x="272" y="874"/>
      <point x="273" y="891"/>
      <point x="276" y="914" type="curve"/>
      <point x="264" y="916" smooth="yes"/>
      <point x="249" y="917" smooth="yes"/>
      <point x="239" y="917" type="curve" smooth="yes"/>
      <point x="200" y="917" smooth="yes"/>
      <point x="154" y="906" smooth="yes"/>
      <point x="154" y="860" type="curve" smooth="yes"/>
      <point x="154" y="819"/>
      <point x="191" y="769"/>
      <point x="224" y="732" type="curve"/>
      <point x="177" y="732"/>
      <point x="135" y="744"/>
      <point x="92" y="763" type="curve"/>
      <point x="76" y="733" smooth="yes"/>
      <point x="70" y="709" smooth="yes"/>
      <point x="70" y="689" type="curve" smooth="yes"/>
      <point x="70" y="649" smooth="yes"/>
      <point x="93" y="625" smooth="yes"/>
      <point x="137" y="625" type="curve" smooth="yes"/>
      <point x="170" y="625"/>
      <point x="214" y="639"/>
      <point x="250" y="656" type="curve"/>
      <point x="236" y="616"/>
      <point x="209" y="572"/>
      <point x="180" y="542" type="curve"/>
      <point x="215" y="508" smooth="yes"/>
      <point x="250" y="493" smooth="yes"/>
      <point x="269" y="493" type="curve" smooth="yes"/>
      <point x="321" y="493" smooth="yes"/>
      <point x="332" y="555" smooth="yes"/>
      <point x="332" y="610" type="curve" smooth="yes"/>
      <point x="332" y="625"/>
      <point x="332" y="643"/>
      <point x="330" y="658" type="curve"/>
      <point x="361" y="634"/>
      <point x="391" y="600"/>
    </contour>
  </outline>
</glyph>
<glyph name="hyphen" format="1">
  <advance width="480"/>
  <unicode hex="002D"/>
  <outline>
    <contour>
      <point x="416" y="422" type="curve" name="hr00"/>
      <point x="385" y="389" smooth="yes"/>
      <point x="337" y="381" smooth="yes"/>
      <point x="288" y="381" type="curve" smooth="yes"/>
      <point x="254" y="381" smooth="yes"/>
      <point x="215" y="385" smooth="yes"/>
      <point x="189" y="385" type="curve" smooth="yes"/>
      <point x="116" y="385" smooth="yes"/>
      <point x="60" y="369" smooth="yes"/>
      <point x="60" y="260" type="curve" smooth="yes"/>
      <point x="60" y="239"/>
      <point x="60" y="225"/>
      <point x="61" y="211" type="curve"/>
      <point x="131" y="255" smooth="yes"/>
      <point x="192" y="263" smooth="yes"/>
      <point x="340" y="263" type="curve" smooth="yes"/>
      <point x="400" y="263" smooth="yes"/>
      <point x="420" y="316" smooth="yes"/>
      <point x="420" y="370" type="curve" smooth="yes"/>
      <point x="420" y="388"/>
      <point x="419" y="406"/>
    </contour>
  </outline>
</glyph>
<glyph name="zero" format="1">
  <advance width="648"/>
  <unicode hex="0030"/>
  <outline>
    <contour>
      <point x="362" y="617" type="curve" smooth="yes" name="hr00"/>
      <point x="415" y="617" smooth="yes"/>
      <point x="464" y="556" smooth="yes"/>
      <point x="464" y="380" type="curve" smooth="yes"/>
      <point x="464" y="222" smooth="yes"/>
      <point x="407" y="61" smooth="yes"/>
      <point x="303" y="61" type="curve" smooth="yes"/>
      <point x="219" y="61" smooth="yes"/>
      <point x="181" y="171" smooth="yes"/>
      <point x="181" y="299" type="curve" smooth="yes"/>
      <point x="181" y="451" smooth="yes"/>
      <point x="261" y="617" smooth="yes"/>
    </contour>
    <contour>
      <point x="320" y="668" type="curve"/>
      <point x="319" y="695"/>
      <point x="309" y="710"/>
      <point x="292" y="710" type="curve"/>
      <point x="146" y="669" smooth="yes"/>
      <point x="50" y="504" smooth="yes"/>
      <point x="50" y="301" type="curve" smooth="yes"/>
      <point x="50" y="76" smooth="yes"/>
      <point x="167" y="-23" smooth="yes"/>
      <point x="279" y="-23" type="curve" smooth="yes"/>
      <point x="503" y="-23" smooth="yes"/>
      <point x="598" y="221" smooth="yes"/>
      <point x="598" y="429" type="curve" smooth="yes"/>
      <point x="598" y="576" smooth="yes"/>
      <point x="540" y="693" smooth="yes"/>
      <point x="423" y="693" type="curve" smooth="yes"/>
      <point x="392" y="693"/>
      <point x="359" y="685"/>
    </contour>
  </outline>
</glyph>
<glyph name="one" format="1">
  <advance width="541"/>
  <unicode hex="0031"/>
  <outline>
    <contour>
      <point x="30" y="-21" type="curve"/>
      <point x="80" y="-3" smooth="yes"/>
      <point x="136" y="2" smooth="yes"/>
      <point x="187" y="2" type="curve" smooth="yes" name="hr01"/>
      <point x="277" y="2" smooth="yes"/>
      <point x="344" y="-19" smooth="yes"/>
      <point x="394" y="-19" type="curve" smooth="yes"/>
      <point x="474" y="-19"/>
      <point x="496" y="27"/>
      <point x="501" y="130" type="curve"/>
      <point x="453" y="109"/>
      <point x="400" y="102"/>
      <point x="345" y="101" type="curve"/>
      <point x="357" y="344"/>
      <point x="403" y="590"/>
      <point x="403" y="702" type="curve"/>
      <point x="279" y="643"/>
      <point x="120" y="598"/>
      <point x="70" y="587" type="curve"/>
      <point x="70" y="561" smooth="yes"/>
      <point x="89" y="473" smooth="yes"/>
      <point x="134" y="473" type="curve" smooth="yes"/>
      <point x="150" y="473"/>
      <point x="208" y="503"/>
      <point x="265" y="536" type="curve"/>
      <point x="248" y="378"/>
      <point x="223" y="207"/>
      <point x="214" y="104" type="curve"/>
      <point x="200" y="105" smooth="yes"/>
      <point x="186" y="105" smooth="yes"/>
      <point x="173" y="105" type="curve" smooth="yes"/>
      <point x="36" y="105"/>
      <point x="30" y="-19"/>
    </contour>
  </outline>
</glyph>
<glyph name="two" format="1">
  <advance width="577"/>
  <unicode hex="0032"/>
  <outline>
    <contour>
      <point x="204" y="435" type="curve" smooth="yes"/>
      <point x="215" y="435"/>
      <point x="227" y="436"/>
      <point x="239" y="438" type="curve"/>
      <point x="212" y="469" smooth="yes"/>
      <point x="200" y="503" smooth="yes"/>
      <point x="200" y="541" type="curve" smooth="yes"/>
      <point x="200" y="603" smooth="yes"/>
      <point x="239" y="638" smooth="yes"/>
      <point x="291" y="638" type="curve" smooth="yes"/>
      <point x="340" y="638" smooth="yes"/>
      <point x="388" y="600" smooth="yes"/>
      <point x="388" y="522" type="curve" smooth="yes"/>
      <point x="388" y="358"/>
      <point x="195" y="193"/>
      <point x="79" y="98" type="curve"/>
      <point x="-24" y="72"/>
      <point x="-30" y="-19"/>
      <point x="-30" y="-21" type="curve"/>
      <point x="29" y="-3" smooth="yes"/>
      <point x="95" y="2" smooth="yes"/>
      <point x="155" y="2" type="curve" smooth="yes" name="hr01"/>
      <point x="261" y="2" smooth="yes"/>
      <point x="355" y="-19" smooth="yes"/>
      <point x="399" y="-19" type="curve" smooth="yes"/>
      <point x="469" y="-19"/>
      <point x="519" y="37"/>
      <point x="525" y="140" type="curve"/>
      <point x="474" y="118" smooth="yes"/>
      <point x="336" y="103" smooth="yes"/>
      <point x="196" y="103" type="curve" smooth="yes"/>
      <point x="177" y="103" type="line"/>
      <point x="417" y="240" smooth="yes"/>
      <point x="527" y="403" smooth="yes"/>
      <point x="527" y="533" type="curve" smooth="yes"/>
      <point x="527" y="662" smooth="yes"/>
      <point x="413" y="719" smooth="yes"/>
      <point x="299" y="719" type="curve" smooth="yes"/>
      <point x="147" y="719" smooth="yes"/>
      <point x="79" y="632" smooth="yes"/>
      <point x="79" y="554" type="curve" smooth="yes"/>
      <point x="79" y="492" smooth="yes"/>
      <point x="123" y="435" smooth="yes"/>
    </contour>
  </outline>
</glyph>
<glyph name="five" format="1">
  <advance width="573"/>
  <unicode hex="0035"/>
  <outline>
    <contour>
      <point x="524" y="710" type="curve" name="hr00"/>
      <point x="524" y="710" smooth="yes"/>
      <point x="399" y="693" smooth="yes"/>
      <point x="259" y="693" type="curve" smooth="yes"/>
      <point x="210" y="693"/>
      <point x="159" y="695"/>
      <point x="111" y="702" type="curve"/>
      <point x="114" y="662"/>
      <point x="126" y="639"/>
      <point x="141" y="626" type="curve"/>
      <point x="94" y="348" type="line"/>
      <point x="137" y="358" smooth="yes"/>
      <point x="173" y="361" smooth="yes"/>
      <point x="202" y="361" type="curve" smooth="yes"/>
      <point x="338" y="361" smooth="yes"/>
      <point x="393" y="272" smooth="yes"/>
      <point x="393" y="195" type="curve" smooth="yes"/>
      <point x="393" y="97" smooth="yes"/>
      <point x="333" y="45" smooth="yes"/>
      <point x="266" y="45" type="curve" smooth="yes"/>
      <point x="194" y="45" smooth="yes"/>
      <point x="166" y="93" smooth="yes"/>
      <point x="166" y="151" type="curve" smooth="yes"/>
      <point x="166" y="183"/>
      <point x="178" y="217"/>
      <point x="205" y="248" type="curve"/>
      <point x="193" y="250" smooth="yes"/>
      <point x="181" y="251" smooth="yes"/>
      <point x="170" y="251" type="curve" smooth="yes"/>
      <point x="91" y="251" smooth="yes"/>
      <point x="40" y="192" smooth="yes"/>
      <point x="40" y="119" type="curve" smooth="yes"/>
      <point x="40" y="20" smooth="yes"/>
      <point x="140" y="-33" smooth="yes"/>
      <point x="254" y="-33" type="curve" smooth="yes"/>
      <point x="427" y="-33" smooth="yes"/>
      <point x="524" y="97" smooth="yes"/>
      <point x="524" y="221" type="curve" smooth="yes"/>
      <point x="524" y="343" smooth="yes"/>
      <point x="432" y="430" smooth="yes"/>
      <point x="272" y="430" type="curve" smooth="yes"/>
      <point x="251" y="430"/>
      <point x="228" y="429"/>
      <point x="205" y="425" type="curve"/>
      <point x="232" y="598" type="line"/>
      <point x="313" y="582" smooth="yes"/>
      <point x="434" y="561" smooth="yes"/>
      <point x="481" y="561" type="curve" smooth="yes"/>
      <point x="522" y="561" smooth="yes"/>
      <point x="533" y="601" smooth="yes"/>
      <point x="533" y="643" type="curve" smooth="yes"/>
      <point x="533" y="673"/>
      <point x="528" y="702"/>
    </contour>
  </outline>
</glyph>
<glyph name="six" format="1">
  <advance width="603"/>
  <unicode hex="0036"/>
  <outline>
    <contour>
      <point x="346" y="637" type="curve" smooth="yes" name="hr00"/>
      <point x="394" y="637" smooth="yes"/>
      <point x="417" y="596" smooth="yes"/>
      <point x="417" y="557" type="curve" smooth="yes"/>
      <point x="417" y="527"/>
      <point x="406" y="498"/>
      <point x="386" y="484" type="curve"/>
      <point x="402" y="477" smooth="yes"/>
      <point x="418" y="474" smooth="yes"/>
      <point x="433" y="474" type="curve" smooth="yes"/>
      <point x="510" y="474" smooth="yes"/>
      <point x="543" y="523" smooth="yes"/>
      <point x="543" y="577" type="curve" smooth="yes"/>
      <point x="543" y="643" smooth="yes"/>
      <point x="480" y="719" smooth="yes"/>
      <point x="366" y="719" type="curve" smooth="yes"/>
      <point x="141" y="719" smooth="yes"/>
      <point x="50" y="481" smooth="yes"/>
      <point x="50" y="270" type="curve" smooth="yes"/>
      <point x="50" y="53" smooth="yes"/>
      <point x="178" y="-34" smooth="yes"/>
      <point x="287" y="-34" type="curve" smooth="yes"/>
      <point x="420" y="-34" smooth="yes"/>
      <point x="540" y="54" smooth="yes"/>
      <point x="540" y="204" type="curve" smooth="yes"/>
      <point x="540" y="327" smooth="yes"/>
      <point x="447" y="397" smooth="yes"/>
      <point x="334" y="397" type="curve" smooth="yes"/>
      <point x="282" y="397"/>
      <point x="225" y="381"/>
      <point x="181" y="360" type="curve"/>
      <point x="197" y="493" smooth="yes"/>
      <point x="248" y="637" smooth="yes"/>
    </contour>
    <contour>
      <point x="284" y="323" type="curve" smooth="yes"/>
      <point x="379" y="323" smooth="yes"/>
      <point x="411" y="258" smooth="yes"/>
      <point x="411" y="190" type="curve" smooth="yes"/>
      <point x="411" y="120" smooth="yes"/>
      <point x="367" y="47" smooth="yes"/>
      <point x="292" y="47" type="curve" smooth="yes"/>
      <point x="242" y="47" smooth="yes"/>
      <point x="176" y="69" smooth="yes"/>
      <point x="176" y="269" type="curve" smooth="yes"/>
      <point x="176" y="278"/>
      <point x="176" y="288"/>
      <point x="177" y="297" type="curve"/>
      <point x="207" y="310" smooth="yes"/>
      <point x="246" y="323" smooth="yes"/>
    </contour>
  </outline>
</glyph>
<glyph name="question" format="1">
  <advance width="453"/>
  <unicode hex="003F"/>
  <outline>
    <contour>
      <point x="115" y="327" type="curve" smooth="yes"/>
      <point x="115" y="280"/>
      <point x="136" y="232"/>
      <point x="237" y="206" type="curve"/>
      <point x="231" y="220" smooth="yes"/>
      <point x="226" y="238" smooth="yes"/>
      <point x="226" y="268" type="curve" smooth="yes"/>
      <point x="226" y="391" smooth="yes"/>
      <point x="473" y="426" smooth="yes"/>
      <point x="473" y="606" type="curve" smooth="yes"/>
      <point x="473" y="726" smooth="yes"/>
      <point x="373" y="776" smooth="yes"/>
      <point x="273" y="776" type="curve" smooth="yes"/>
      <point x="156" y="776" smooth="yes"/>
      <point x="60" y="721" smooth="yes"/>
      <point x="60" y="632" type="curve" smooth="yes" name="hr01"/>
      <point x="60" y="574" smooth="yes"/>
      <point x="102" y="537" smooth="yes"/>
      <point x="155" y="537" type="curve" smooth="yes"/>
      <point x="168" y="537"/>
      <point x="184" y="539"/>
      <point x="200" y="545" type="curve"/>
      <point x="184" y="564" smooth="yes"/>
      <point x="175" y="588" smooth="yes"/>
      <point x="175" y="612" type="curve" smooth="yes"/>
      <point x="175" y="660" smooth="yes"/>
      <point x="204" y="706" smooth="yes"/>
      <point x="268" y="706" type="curve" smooth="yes"/>
      <point x="305" y="706" smooth="yes"/>
      <point x="343" y="682" smooth="yes"/>
      <point x="343" y="633" type="curve" smooth="yes"/>
      <point x="343" y="501" smooth="yes"/>
      <point x="115" y="453" smooth="yes"/>
    </contour>
    <contour>
      <point x="114" y="136" type="curve"/>
      <point x="106" y="107" smooth="yes"/>
      <point x="96" y="80" smooth="yes"/>
      <point x="96" y="51" type="curve" smooth="yes" name="hr03"/>
      <point x="96" y="1" smooth="yes"/>
      <point x="133" y="-11" smooth="yes"/>
      <point x="170" y="-11" type="curve" smooth="yes"/>
      <point x="194" y="-11"/>
      <point x="220" y="-7"/>
      <point x="241" y="-1" type="curve"/>
      <point x="249" y="28" smooth="yes"/>
      <point x="259" y="55" smooth="yes"/>
      <point x="259" y="84" type="curve" smooth="yes"/>
      <point x="259" y="134" smooth="yes"/>
      <point x="222" y="146" smooth="yes"/>
      <point x="185" y="146" type="curve" smooth="yes"/>
      <point x="161" y="146"/>
      <point x="135" y="142"/>
    </contour>
  </outline>
</glyph>
<glyph name="at" format="1">
  <advance width="1027"/>
  <unicode hex="0040"/>
  <outline>
    <contour>
      <point x="433" y="-65" type="curve" smooth="yes"/>
      <point x="310" y="-65" smooth="yes"/>
      <point x="182" y="8" smooth="yes"/>
      <point x="182" y="222" type="curve" smooth="yes"/>
      <point x="182" y="431" smooth="yes"/>
      <point x="317" y="653" smooth="yes"/>
      <point x="593" y="653" type="curve" smooth="yes"/>
      <point x="716" y="653" smooth="yes"/>
      <point x="843" y="580" smooth="yes"/>
      <point x="843" y="365" type="curve" smooth="yes"/>
      <point x="843" y="167" smooth="yes"/>
      <point x="771" y="77" smooth="yes"/>
      <point x="724" y="77" type="curve" smooth="yes"/>
      <point x="681" y="77" smooth="yes"/>
      <point x="674" y="118" smooth="yes"/>
      <point x="674" y="174" type="curve" smooth="yes"/>
      <point x="674" y="301" smooth="yes"/>
      <point x="709" y="404" smooth="yes"/>
      <point x="709" y="463" type="curve" smooth="yes" name="hr01"/>
      <point x="709" y="521" smooth="yes"/>
      <point x="682" y="535" smooth="yes"/>
      <point x="627" y="535" type="curve" smooth="yes"/>
      <point x="579" y="535" type="line"/>
      <point x="583" y="509" type="line"/>
      <point x="562" y="520" smooth="yes"/>
      <point x="540" y="527" smooth="yes"/>
      <point x="512" y="527" type="curve" smooth="yes"/>
      <point x="367" y="527" smooth="yes"/>
      <point x="295" y="370" smooth="yes"/>
      <point x="295" y="245" type="curve" smooth="yes"/>
      <point x="295" y="137" smooth="yes"/>
      <point x="349" y="89" smooth="yes"/>
      <point x="414" y="89" type="curve" smooth="yes"/>
      <point x="469" y="89"/>
      <point x="537" y="132"/>
      <point x="574" y="239" type="curve"/>
      <point x="582" y="239" type="line"/>
      <point x="580" y="223" smooth="yes"/>
      <point x="578" y="198" smooth="yes"/>
      <point x="578" y="170" type="curve" smooth="yes"/>
      <point x="578" y="70" smooth="yes"/>
      <point x="603" y="0" smooth="yes"/>
      <point x="701" y="0" type="curve" smooth="yes"/>
      <point x="817" y="0" smooth="yes"/>
      <point x="977" y="131" smooth="yes"/>
      <point x="977" y="369" type="curve" smooth="yes"/>
      <point x="977" y="630" smooth="yes"/>
      <point x="776" y="720" smooth="yes"/>
      <point x="605" y="720" type="curve" smooth="yes"/>
      <point x="250" y="720" smooth="yes"/>
      <point x="50" y="464" smooth="yes"/>
      <point x="50" y="218" type="curve" smooth="yes"/>
      <point x="50" y="-43" smooth="yes"/>
      <point x="239" y="-169" smooth="yes"/>
      <point x="411" y="-169" type="curve" smooth="yes"/>
      <point x="508" y="-169" smooth="yes"/>
      <point x="587" y="-131" smooth="yes"/>
      <point x="587" y="-58" type="curve" smooth="yes"/>
      <point x="587" y="-45"/>
      <point x="585" y="-30"/>
      <point x="580" y="-12" type="curve"/>
      <point x="538" y="-45" smooth="yes"/>
      <point x="487" y="-65" smooth="yes"/>
    </contour>
    <contour>
      <point x="431" y="245" type="curve" smooth="yes"/>
      <point x="431" y="327"/>
      <point x="484" y="445"/>
      <point x="585" y="491" type="curve"/>
      <point x="587" y="473" smooth="yes"/>
      <point x="588" y="454" smooth="yes"/>
      <point x="588" y="440" type="curve" smooth="yes"/>
      <point x="588" y="312" smooth="yes"/>
      <point x="529" y="176" smooth="yes"/>
      <point x="476" y="176" type="curve" smooth="yes"/>
      <point x="443" y="176" smooth="yes"/>
      <point x="431" y="206" smooth="yes"/>
    </contour>
  </outline>
</glyph>
<glyph name="G" format="1">
  <advance width="687"/>
  <unicode hex="0047"/>
  <outline>
    <contour>
      <point x="280" y="-256" type="curve" smooth="yes"/>
      <point x="219" y="-256" smooth="yes"/>
      <point x="197" y="-211" smooth="yes"/>
      <point x="197" y="-159" type="curve" smooth="yes"/>
      <point x="197" y="-99"/>
      <point x="224" y="-51"/>
      <point x="250" y="-18" type="curve"/>
      <point x="227" y="-7" smooth="yes"/>
      <point x="205" y="-1" smooth="yes"/>
      <point x="184" y="-1" type="curve" smooth="yes"/>
      <point x="112" y="-1" smooth="yes"/>
      <point x="55" y="-62" smooth="yes"/>
      <point x="55" y="-148" type="curve" smooth="yes"/>
      <point x="55" y="-235" smooth="yes"/>
      <point x="114" y="-329" smooth="yes"/>
      <point x="265" y="-329" type="curve" smooth="yes"/>
      <point x="531" y="-329" smooth="yes"/>
      <point x="611" y="0" smooth="yes"/>
      <point x="611" y="280" type="curve" smooth="yes"/>
      <point x="611" y="341" smooth="yes"/>
      <point x="586" y="366" smooth="yes"/>
      <point x="508" y="366" type="curve" smooth="yes"/>
      <point x="496" y="366"/>
      <point x="473" y="365"/>
      <point x="462" y="364" type="curve"/>
      <point x="464" y="345" smooth="yes"/>
      <point x="465" y="329" smooth="yes"/>
      <point x="465" y="314" type="curve" smooth="yes"/>
      <point x="465" y="185" smooth="yes"/>
      <point x="397" y="114" smooth="yes"/>
      <point x="329" y="114" type="curve" smooth="yes"/>
      <point x="262" y="114" smooth="yes"/>
      <point x="197" y="182" smooth="yes"/>
      <point x="197" y="330" type="curve" smooth="yes"/>
      <point x="197" y="506" smooth="yes"/>
      <point x="283" y="733" smooth="yes"/>
      <point x="415" y="733" type="curve" smooth="yes"/>
      <point x="483" y="733" smooth="yes"/>
      <point x="515" y="690" smooth="yes"/>
      <point x="515" y="645" type="curve" smooth="yes" name="hr01"/>
      <point x="515" y="595" smooth="yes"/>
      <point x="475" y="542" smooth="yes"/>
      <point x="398" y="542" type="curve" smooth="yes"/>
      <point x="383" y="542"/>
      <point x="366" y="544"/>
      <point x="347" y="549" type="curve"/>
      <point x="375" y="497" smooth="yes"/>
      <point x="429" y="471" smooth="yes"/>
      <point x="482" y="471" type="curve" smooth="yes"/>
      <point x="559" y="471" smooth="yes"/>
      <point x="637" y="526" smooth="yes"/>
      <point x="637" y="634" type="curve" smooth="yes"/>
      <point x="637" y="719" smooth="yes"/>
      <point x="578" y="806" smooth="yes"/>
      <point x="433" y="806" type="curve" smooth="yes"/>
      <point x="174" y="806" smooth="yes"/>
      <point x="40" y="569" smooth="yes"/>
      <point x="40" y="324" type="curve" smooth="yes"/>
      <point x="40" y="129" smooth="yes"/>
      <point x="154" y="29" smooth="yes"/>
      <point x="274" y="29" type="curve" smooth="yes"/>
      <point x="345" y="29"/>
      <point x="419" y="64"/>
      <point x="470" y="137" type="curve"/>
      <point x="456" y="-100" smooth="yes"/>
      <point x="399" y="-256" smooth="yes"/>
    </contour>
  </outline>
</glyph>
<glyph name="V" format="1">
  <advance width="661"/>
  <unicode hex="0056"/>
  <outline>
    <contour>
      <point x="342" y="0" type="curve" name="hr00"/>
      <point x="421" y="215" smooth="yes"/>
      <point x="644" y="639" smooth="yes"/>
      <point x="644" y="733" type="curve" smooth="yes"/>
      <point x="644" y="768"/>
      <point x="610" y="794"/>
      <point x="531" y="807" type="curve"/>
      <point x="531" y="708"/>
      <point x="385" y="304"/>
      <point x="308" y="138" type="curve"/>
      <point x="298" y="194" smooth="yes"/>
      <point x="267" y="350" smooth="yes"/>
      <point x="261" y="384" type="curve" smooth="yes"/>
      <point x="195" y="742" smooth="yes"/>
      <point x="188" y="792" smooth="yes"/>
      <point x="111" y="792" type="curve" smooth="yes"/>
      <point x="86" y="792"/>
      <point x="48" y="781"/>
      <point x="16" y="766" type="curve"/>
      <point x="93" y="656" smooth="yes"/>
      <point x="161" y="182" smooth="yes"/>
      <point x="213" y="1" type="curve" smooth="yes"/>
      <point x="216" y="-10" smooth="yes"/>
      <point x="234" y="-14" smooth="yes"/>
      <point x="251" y="-14" type="curve" smooth="yes"/>
      <point x="279" y="-14"/>
      <point x="333" y="-4"/>
    </contour>
  </outline>
</glyph>
<glyph name="W" format="1">
  <advance width="983"/>
  <unicode hex="0057"/>
  <outline>
    <contour>
      <point x="670" y="0" type="curve" name="hr00"/>
      <point x="721" y="133" smooth="yes"/>
      <point x="972" y="650" smooth="yes"/>
      <point x="972" y="737" type="curve" smooth="yes"/>
      <point x="972" y="769"/>
      <point x="928" y="794"/>
      <point x="864" y="807" type="curve"/>
      <point x="858" y="708"/>
      <point x="710" y="304"/>
      <point x="646" y="138" type="curve"/>
      <point x="639" y="194" smooth="yes"/>
      <point x="615" y="350" smooth="yes"/>
      <point x="611" y="384" type="curve" smooth="yes"/>
      <point x="566" y="742" smooth="yes"/>
      <point x="560" y="792" smooth="yes"/>
      <point x="482" y="792" type="curve" smooth="yes"/>
      <point x="457" y="792"/>
      <point x="419" y="781"/>
      <point x="387" y="766" type="curve"/>
      <point x="409" y="731"/>
      <point x="429" y="658"/>
      <point x="447" y="570" type="curve"/>
      <point x="397" y="418"/>
      <point x="331" y="236"/>
      <point x="293" y="138" type="curve"/>
      <point x="286" y="194" smooth="yes"/>
      <point x="262" y="350" smooth="yes"/>
      <point x="258" y="384" type="curve" smooth="yes"/>
      <point x="213" y="742" smooth="yes"/>
      <point x="207" y="792" smooth="yes"/>
      <point x="129" y="792" type="curve" smooth="yes"/>
      <point x="104" y="792"/>
      <point x="66" y="781"/>
      <point x="34" y="766" type="curve"/>
      <point x="105" y="656"/>
      <point x="149" y="182"/>
      <point x="192" y="1" type="curve"/>
      <point x="192" y="-10" smooth="yes"/>
      <point x="210" y="-14" smooth="yes"/>
      <point x="227" y="-14" type="curve" smooth="yes"/>
      <point x="255" y="-14"/>
      <point x="309" y="-4"/>
      <point x="317" y="0" type="curve"/>
      <point x="342" y="65"/>
      <point x="415" y="222"/>
      <point x="482" y="375" type="curve"/>
      <point x="505" y="231"/>
      <point x="525" y="84"/>
      <point x="545" y="1" type="curve"/>
      <point x="545" y="-10" smooth="yes"/>
      <point x="563" y="-14" smooth="yes"/>
      <point x="580" y="-14" type="curve" smooth="yes"/>
      <point x="608" y="-14"/>
      <point x="662" y="-4"/>
    </contour>
  </outline>
</glyph>
<glyph name="Y" format="1">
  <advance width="565"/>
  <unicode hex="0059"/>
  <outline>
    <contour>
      <point x="281" y="404" type="line" name="hr00"/>
      <point x="209" y="759" smooth="yes"/>
      <point x="185" y="803" smooth="yes"/>
      <point x="94" y="803" type="curve" smooth="yes"/>
      <point x="69" y="803"/>
      <point x="33" y="793"/>
      <point x="8" y="777" type="curve"/>
      <point x="79" y="670"/>
      <point x="143" y="456"/>
      <point x="193" y="278" type="curve"/>
      <point x="184" y="216" smooth="yes"/>
      <point x="178" y="165" smooth="yes"/>
      <point x="178" y="129" type="curve" smooth="yes"/>
      <point x="178" y="46"/>
      <point x="207" y="-1"/>
      <point x="325" y="-31" type="curve"/>
      <point x="316" y="-10" smooth="yes"/>
      <point x="311" y="29" smooth="yes"/>
      <point x="311" y="78" type="curve" smooth="yes"/>
      <point x="311" y="135"/>
      <point x="318" y="207"/>
      <point x="327" y="283" type="curve"/>
      <point x="449" y="460" smooth="yes"/>
      <point x="580" y="648" smooth="yes"/>
      <point x="580" y="722" type="curve" smooth="yes"/>
      <point x="580" y="750"/>
      <point x="568" y="798"/>
      <point x="505" y="833" type="curve"/>
      <point x="492" y="744"/>
      <point x="416" y="565"/>
      <point x="288" y="365" type="curve"/>
    </contour>
  </outline>
</glyph>
<glyph name="asciicircum" format="1">
  <advance width="620"/>
  <unicode hex="005E"/>
  <outline>
    <contour>
      <point x="301" y="759" type="curve" name="hr00"/>
      <point x="175" y="598" smooth="yes"/>
      <point x="71" y="459" smooth="yes"/>
      <point x="71" y="404" type="curve" smooth="yes"/>
      <point x="71" y="370"/>
      <point x="88" y="346"/>
      <point x="149" y="328" type="curve"/>
      <point x="194" y="436"/>
      <point x="239" y="527"/>
      <point x="332" y="674" type="curve"/>
      <point x="373" y="412" smooth="yes"/>
      <point x="405" y="327" smooth="yes"/>
      <point x="473" y="327" type="curve" smooth="yes"/>
      <point x="517" y="327"/>
      <point x="554" y="339"/>
      <point x="569" y="352" type="curve"/>
      <point x="498" y="476" smooth="yes"/>
      <point x="468" y="573" smooth="yes"/>
      <point x="428" y="758" type="curve" smooth="yes"/>
      <point x="425" y="771" smooth="yes"/>
      <point x="408" y="776" smooth="yes"/>
      <point x="387" y="776" type="curve" smooth="yes"/>
      <point x="354" y="776"/>
      <point x="312" y="764"/>
    </contour>
  </outline>
</glyph>
<glyph name="d" format="1">
  <advance width="616"/>
  <unicode hex="0064"/>
  <outline>
    <contour>
      <point x="530" y="-18" type="curve"/>
      <point x="524" y="28" smooth="yes"/>
      <point x="521" y="75" smooth="yes"/>
      <point x="521" y="122" type="curve" smooth="yes"/>
      <point x="521" y="357" smooth="yes"/>
      <point x="588" y="589" smooth="yes"/>
      <point x="588" y="750" type="curve" smooth="yes" name="hr01"/>
      <point x="588" y="857"/>
      <point x="559" y="934"/>
      <point x="458" y="957" type="curve"/>
      <point x="464" y="921" smooth="yes"/>
      <point x="466" y="874" smooth="yes"/>
      <point x="466" y="822" type="curve" smooth="yes"/>
      <point x="466" y="635" smooth="yes"/>
      <point x="432" y="83" smooth="yes"/>
      <point x="257" y="83" type="curve" smooth="yes"/>
      <point x="205" y="83" smooth="yes"/>
      <point x="184" y="133" smooth="yes"/>
      <point x="184" y="202" type="curve" smooth="yes"/>
      <point x="184" y="326"/>
      <point x="252" y="504"/>
      <point x="426" y="550" type="curve"/>
      <point x="405" y="560" smooth="yes"/>
      <point x="373" y="567" smooth="yes"/>
      <point x="343" y="567" type="curve" smooth="yes"/>
      <point x="168" y="567" smooth="yes"/>
      <point x="36" y="408" smooth="yes"/>
      <point x="36" y="188" type="curve" smooth="yes"/>
      <point x="36" y="51" smooth="yes"/>
      <point x="103" y="-11" smooth="yes"/>
      <point x="182" y="-11" type="curve" smooth="yes"/>
      <point x="271" y="-11"/>
      <point x="363" y="57"/>
      <point x="406" y="175" type="curve" name="hr02"/>
      <point x="406" y="87"/>
      <point x="427" y="10"/>
    </contour>
  </outline>
</glyph>
<glyph name="g" format="1">
  <advance width="619"/>
  <unicode hex="0067"/>
  <outline>
    <contour>
      <point x="368" y="567" type="curve" smooth="yes"/>
      <point x="149" y="567" smooth="yes"/>
      <point x="39" y="359" smooth="yes"/>
      <point x="39" y="201" type="curve" smooth="yes"/>
      <point x="39" y="87" smooth="yes"/>
      <point x="89" y="-7" smooth="yes"/>
      <point x="197" y="-7" type="curve" smooth="yes"/>
      <point x="276" y="-7"/>
      <point x="365" y="65"/>
      <point x="405" y="183" type="curve"/>
      <point x="398" y="-157" smooth="yes"/>
      <point x="312" y="-257" smooth="yes"/>
      <point x="223" y="-257" type="curve" smooth="yes"/>
      <point x="172" y="-257" smooth="yes"/>
      <point x="145" y="-218" smooth="yes"/>
      <point x="145" y="-179" type="curve" smooth="yes" name="hr01"/>
      <point x="145" y="-146"/>
      <point x="157" y="-113"/>
      <point x="183" y="-94" type="curve"/>
      <point x="166" y="-87" smooth="yes"/>
      <point x="151" y="-84" smooth="yes"/>
      <point x="136" y="-84" type="curve" smooth="yes"/>
      <point x="58" y="-84" smooth="yes"/>
      <point x="18" y="-141" smooth="yes"/>
      <point x="18" y="-203" type="curve" smooth="yes"/>
      <point x="18" y="-263" smooth="yes"/>
      <point x="73" y="-329" smooth="yes"/>
      <point x="184" y="-329" type="curve" smooth="yes"/>
      <point x="450" y="-329" smooth="yes"/>
      <point x="548" y="-41" smooth="yes"/>
      <point x="548" y="473" type="curve" smooth="yes"/>
      <point x="548" y="527"/>
      <point x="555" y="580"/>
      <point x="562" y="633" type="curve"/>
      <point x="459" y="601" smooth="yes"/>
      <point x="443" y="514" smooth="yes"/>
      <point x="429" y="412" type="curve" smooth="yes"/>
      <point x="406" y="250" smooth="yes"/>
      <point x="355" y="92" smooth="yes"/>
      <point x="263" y="92" type="curve" smooth="yes"/>
      <point x="211" y="92" smooth="yes"/>
      <point x="190" y="143" smooth="yes"/>
      <point x="190" y="212" type="curve" smooth="yes" name="hr02"/>
      <point x="190" y="338"/>
      <point x="272" y="496"/>
      <point x="425" y="528" type="curve"/>
      <point x="422" y="560" smooth="yes"/>
      <point x="399" y="567" smooth="yes"/>
    </contour>
  </outline>
</glyph>
<glyph name="i" format="1">
  <advance width="321"/>
  <unicode hex="0069"/>
  <outline>
    <contour>
      <point x="207" y="88" type="curve" smooth="yes"/>
      <point x="209" y="275" smooth="yes"/>
      <point x="257" y="438" smooth="yes"/>
      <point x="257" y="497" type="curve" smooth="yes" name="hr01"/>
      <point x="257" y="558" smooth="yes"/>
      <point x="232" y="583" smooth="yes"/>
      <point x="154" y="583" type="curve" smooth="yes"/>
      <point x="142" y="583"/>
      <point x="124" y="582"/>
      <point x="113" y="581" type="curve"/>
      <point x="119" y="548" smooth="yes"/>
      <point x="119" y="513" smooth="yes"/>
      <point x="119" y="479" type="curve" smooth="yes"/>
      <point x="119" y="377" smooth="yes"/>
      <point x="87" y="252" smooth="yes"/>
      <point x="87" y="164" type="curve" smooth="yes" name="hr02"/>
      <point x="87" y="67"/>
      <point x="110" y="13"/>
      <point x="219" y="-15" type="curve"/>
      <point x="211" y="3" smooth="yes"/>
      <point x="207" y="40" smooth="yes"/>
    </contour>
    <contour>
      <point x="272" y="671" type="curve"/>
      <point x="280" y="695" smooth="yes"/>
      <point x="287" y="718" smooth="yes"/>
      <point x="287" y="742" type="curve" smooth="yes" name="hr03"/>
      <point x="287" y="803" smooth="yes"/>
      <point x="235" y="814" smooth="yes"/>
      <point x="184" y="814" type="curve" smooth="yes"/>
      <point x="167" y="814"/>
      <point x="149" y="812"/>
      <point x="135" y="810" type="curve"/>
      <point x="127" y="786" smooth="yes"/>
      <point x="120" y="763" smooth="yes"/>
      <point x="120" y="739" type="curve" smooth="yes"/>
      <point x="120" y="678" smooth="yes"/>
      <point x="172" y="667" smooth="yes"/>
      <point x="223" y="667" type="curve" smooth="yes"/>
      <point x="240" y="667"/>
      <point x="258" y="669"/>
    </contour>
  </outline>
</glyph>
<glyph name="m" format="1">
  <advance width="895"/>
  <unicode hex="006D"/>
  <outline>
    <contour>
      <point x="502" y="106" type="curve" smooth="yes"/>
      <point x="502" y="330" smooth="yes"/>
      <point x="595" y="473" smooth="yes"/>
      <point x="653" y="473" type="curve" smooth="yes"/>
      <point x="679" y="473" smooth="yes"/>
      <point x="693" y="450" smooth="yes"/>
      <point x="693" y="407" type="curve" smooth="yes" name="hr01"/>
      <point x="693" y="306" smooth="yes"/>
      <point x="653" y="181" smooth="yes"/>
      <point x="653" y="102" type="curve" smooth="yes" name="hr02"/>
      <point x="653" y="13" smooth="yes"/>
      <point x="699" y="-15" smooth="yes"/>
      <point x="808" y="-15" type="curve" smooth="yes"/>
      <point x="820" y="-15"/>
      <point x="832" y="-15"/>
      <point x="845" y="-14" type="curve"/>
      <point x="806" y="8" smooth="yes"/>
      <point x="788" y="32" smooth="yes"/>
      <point x="788" y="95" type="curve" smooth="yes"/>
      <point x="788" y="211" smooth="yes"/>
      <point x="827" y="322" smooth="yes"/>
      <point x="827" y="435" type="curve" smooth="yes" name="hr03"/>
      <point x="827" y="521" smooth="yes"/>
      <point x="801" y="577" smooth="yes"/>
      <point x="715" y="577" type="curve" smooth="yes"/>
      <point x="661" y="577"/>
      <point x="589" y="513"/>
      <point x="538" y="414" type="curve"/>
      <point x="538" y="511" smooth="yes"/>
      <point x="513" y="577" smooth="yes"/>
      <point x="425" y="577" type="curve" smooth="yes"/>
      <point x="359" y="577"/>
      <point x="265" y="482"/>
      <point x="219" y="345" type="curve"/>
      <point x="223" y="373" smooth="yes"/>
      <point x="226" y="400" smooth="yes"/>
      <point x="226" y="426" type="curve" smooth="yes"/>
      <point x="226" y="503"/>
      <point x="199" y="565"/>
      <point x="94" y="598" type="curve"/>
      <point x="106" y="551" smooth="yes"/>
      <point x="111" y="500" smooth="yes"/>
      <point x="111" y="448" type="curve" smooth="yes"/>
      <point x="111" y="314" smooth="yes"/>
      <point x="70" y="128" smooth="yes"/>
      <point x="70" y="83" type="curve" smooth="yes" name="hr04"/>
      <point x="70" y="22" smooth="yes"/>
      <point x="101" y="-2" smooth="yes"/>
      <point x="176" y="-2" type="curve" smooth="yes"/>
      <point x="188" y="-2"/>
      <point x="202" y="-1"/>
      <point x="218" y="0" type="curve"/>
      <point x="214" y="37" smooth="yes"/>
      <point x="212" y="73" smooth="yes"/>
      <point x="212" y="106" type="curve" smooth="yes"/>
      <point x="212" y="332" smooth="yes"/>
      <point x="305" y="473" smooth="yes"/>
      <point x="363" y="473" type="curve" smooth="yes"/>
      <point x="389" y="473" smooth="yes"/>
      <point x="403" y="450" smooth="yes"/>
      <point x="403" y="407" type="curve" smooth="yes"/>
      <point x="403" y="301" smooth="yes"/>
      <point x="360" y="153" smooth="yes"/>
      <point x="360" y="83" type="curve" smooth="yes" name="hr05"/>
      <point x="360" y="22" smooth="yes"/>
      <point x="391" y="-2" smooth="yes"/>
      <point x="466" y="-2" type="curve" smooth="yes"/>
      <point x="478" y="-2"/>
      <point x="492" y="-1"/>
      <point x="508" y="0" type="curve"/>
      <point x="504" y="37" smooth="yes"/>
      <point x="502" y="73" smooth="yes"/>
    </contour>
  </outline>
</glyph>
<glyph name="n" format="1">
  <advance width="626"/>
  <unicode hex="006E"/>
  <outline>
    <contour>
      <point x="558" y="435" type="curve" smooth="yes"/>
      <point x="558" y="521" smooth="yes"/>
      <point x="527" y="577" smooth="yes"/>
      <point x="449" y="577" type="curve" smooth="yes"/>
      <point x="360" y="577"/>
      <point x="260" y="464"/>
      <point x="214" y="309" type="curve"/>
      <point x="221" y="351" smooth="yes"/>
      <point x="226" y="391" smooth="yes"/>
      <point x="226" y="427" type="curve" smooth="yes"/>
      <point x="226" y="504"/>
      <point x="199" y="565"/>
      <point x="95" y="598" type="curve"/>
      <point x="107" y="551" smooth="yes"/>
      <point x="112" y="500" smooth="yes"/>
      <point x="112" y="448" type="curve" smooth="yes"/>
      <point x="112" y="315" smooth="yes"/>
      <point x="70" y="142" smooth="yes"/>
      <point x="70" y="84" type="curve" smooth="yes" name="hr01"/>
      <point x="70" y="22" smooth="yes"/>
      <point x="101" y="-2" smooth="yes"/>
      <point x="177" y="-2" type="curve" smooth="yes"/>
      <point x="189" y="-2"/>
      <point x="203" y="-1"/>
      <point x="219" y="0" type="curve"/>
      <point x="213" y="35" smooth="yes"/>
      <point x="213" y="67" smooth="yes"/>
      <point x="213" y="98" type="curve" smooth="yes"/>
      <point x="213" y="328" smooth="yes"/>
      <point x="324" y="473" smooth="yes"/>
      <point x="384" y="473" type="curve" smooth="yes"/>
      <point x="410" y="473" smooth="yes"/>
      <point x="424" y="450" smooth="yes"/>
      <point x="424" y="407" type="curve" smooth="yes" name="hr02"/>
      <point x="424" y="306" smooth="yes"/>
      <point x="384" y="181" smooth="yes"/>
      <point x="384" y="102" type="curve" smooth="yes" name="hr03"/>
      <point x="384" y="13" smooth="yes"/>
      <point x="430" y="-15" smooth="yes"/>
      <point x="539" y="-15" type="curve" smooth="yes"/>
      <point x="551" y="-15"/>
      <point x="563" y="-15"/>
      <point x="576" y="-14" type="curve"/>
      <point x="537" y="8" smooth="yes"/>
      <point x="519" y="32" smooth="yes"/>
      <point x="519" y="95" type="curve" smooth="yes"/>
      <point x="519" y="211" smooth="yes"/>
      <point x="558" y="322" smooth="yes"/>
    </contour>
  </outline>
</glyph>
<glyph name="o" format="1">
  <advance width="617"/>
  <unicode hex="006F"/>
  <outline>
    <contour>
      <point x="361" y="501" type="curve" smooth="yes" name="hr00"/>
      <point x="406" y="501" smooth="yes"/>
      <point x="439" y="459" smooth="yes"/>
      <point x="439" y="341" type="curve" smooth="yes"/>
      <point x="439" y="207" smooth="yes"/>
      <point x="383" y="57" smooth="yes"/>
      <point x="288" y="57" type="curve" smooth="yes"/>
      <point x="220" y="57" smooth="yes"/>
      <point x="194" y="134" smooth="yes"/>
      <point x="194" y="228" type="curve" smooth="yes"/>
      <point x="194" y="354" smooth="yes"/>
      <point x="272" y="501" smooth="yes"/>
    </contour>
    <contour>
      <point x="276" y="591" type="curve"/>
      <point x="138" y="557" smooth="yes"/>
      <point x="50" y="413" smooth="yes"/>
      <point x="50" y="247" type="curve" smooth="yes"/>
      <point x="50" y="65" smooth="yes"/>
      <point x="162" y="-15" smooth="yes"/>
      <point x="266" y="-15" type="curve" smooth="yes"/>
      <point x="480" y="-15" smooth="yes"/>
      <point x="567" y="187" smooth="yes"/>
      <point x="567" y="357" type="curve" smooth="yes"/>
      <point x="567" y="493" smooth="yes"/>
      <point x="500" y="574" smooth="yes"/>
      <point x="413" y="574" type="curve" smooth="yes"/>
      <point x="343" y="574"/>
      <point x="233" y="530"/>
      <point x="182" y="360" type="curve"/>
      <point x="194" y="471"/>
      <point x="250" y="538"/>
      <point x="306" y="571" type="curve"/>
      <point x="304" y="581"/>
      <point x="291" y="591"/>
    </contour>
  </outline>
</glyph>
<glyph name="p" format="1">
  <advance width="649"/>
  <unicode hex="0070"/>
  <outline>
    <contour>
      <point x="225" y="371" type="curve"/>
      <point x="225" y="504"/>
      <point x="195" y="576"/>
      <point x="84" y="603" type="curve"/>
      <point x="95" y="541" smooth="yes"/>
      <point x="99" y="472" smooth="yes"/>
      <point x="99" y="402" type="curve" smooth="yes"/>
      <point x="99" y="174" smooth="yes"/>
      <point x="38" y="-129" smooth="yes"/>
      <point x="38" y="-213" type="curve" smooth="yes" name="hr01"/>
      <point x="38" y="-308"/>
      <point x="101" y="-326"/>
      <point x="199" y="-329" type="curve"/>
      <point x="184" y="-252" smooth="yes"/>
      <point x="179" y="-178" smooth="yes"/>
      <point x="179" y="-108" type="curve" smooth="yes"/>
      <point x="179" y="215" smooth="yes"/>
      <point x="260" y="458" smooth="yes"/>
      <point x="384" y="458" type="curve" smooth="yes"/>
      <point x="428" y="458" smooth="yes"/>
      <point x="451" y="412" smooth="yes"/>
      <point x="451" y="350" type="curve" smooth="yes"/>
      <point x="451" y="229"/>
      <point x="379" y="49"/>
      <point x="237" y="16" type="curve"/>
      <point x="266" y="5" smooth="yes"/>
      <point x="292" y="0" smooth="yes"/>
      <point x="320" y="0" type="curve" smooth="yes"/>
      <point x="473" y="0" smooth="yes"/>
      <point x="599" y="160" smooth="yes"/>
      <point x="599" y="360" type="curve" smooth="yes"/>
      <point x="599" y="491" smooth="yes"/>
      <point x="534" y="553" smooth="yes"/>
      <point x="456" y="553" type="curve" smooth="yes"/>
      <point x="376" y="553"/>
      <point x="283" y="490"/>
    </contour>
  </outline>
</glyph>
<glyph name="q" format="1">
  <advance width="637"/>
  <unicode hex="0071"/>
  <outline>
    <contour>
      <point x="424" y="216" type="curve"/>
      <point x="414" y="128"/>
      <point x="397" y="33"/>
      <point x="382" y="-46" type="curve"/>
      <point x="331" y="-67" smooth="yes"/>
      <point x="292" y="-92" smooth="yes"/>
      <point x="292" y="-134" type="curve" smooth="yes"/>
      <point x="292" y="-145"/>
      <point x="295" y="-157"/>
      <point x="301" y="-170" type="curve"/>
      <point x="324" y="-149"/>
      <point x="346" y="-134"/>
      <point x="368" y="-121" type="curve"/>
      <point x="361" y="-164" smooth="yes"/>
      <point x="356" y="-198" smooth="yes"/>
      <point x="356" y="-217" type="curve" smooth="yes"/>
      <point x="356" y="-308"/>
      <point x="415" y="-326"/>
      <point x="507" y="-329" type="curve"/>
      <point x="499" y="-275" smooth="yes"/>
      <point x="496" y="-222" smooth="yes"/>
      <point x="496" y="-166" type="curve" smooth="yes"/>
      <point x="496" y="-134"/>
      <point x="497" y="-102"/>
      <point x="498" y="-70" type="curve"/>
      <point x="545" y="-55" smooth="yes"/>
      <point x="619" y="-40" smooth="yes"/>
      <point x="619" y="11" type="curve" smooth="yes"/>
      <point x="619" y="31"/>
      <point x="611" y="52"/>
      <point x="600" y="72" type="curve"/>
      <point x="582" y="40"/>
      <point x="546" y="18"/>
      <point x="503" y="0" type="curve"/>
      <point x="521" y="224" smooth="yes"/>
      <point x="567" y="423" smooth="yes"/>
      <point x="567" y="483" type="curve" smooth="yes" name="hr01"/>
      <point x="567" y="553" smooth="yes"/>
      <point x="527" y="570" smooth="yes"/>
      <point x="469" y="570" type="curve" smooth="yes"/>
      <point x="457" y="570"/>
      <point x="442" y="569"/>
      <point x="427" y="568" type="curve"/>
      <point x="432" y="528" smooth="yes"/>
      <point x="433" y="490" smooth="yes"/>
      <point x="433" y="454" type="curve" smooth="yes"/>
      <point x="433" y="257" smooth="yes"/>
      <point x="346" y="93" smooth="yes"/>
      <point x="250" y="93" type="curve" smooth="yes"/>
      <point x="205" y="93" smooth="yes"/>
      <point x="184" y="138" smooth="yes"/>
      <point x="184" y="202" type="curve" smooth="yes"/>
      <point x="184" y="320"/>
      <point x="261" y="495"/>
      <point x="399" y="541" type="curve"/>
      <point x="367" y="555" smooth="yes"/>
      <point x="335" y="561" smooth="yes"/>
      <point x="306" y="561" type="curve" smooth="yes"/>
      <point x="137" y="561" smooth="yes"/>
      <point x="36" y="344" smooth="yes"/>
      <point x="36" y="187" type="curve" smooth="yes"/>
      <point x="36" y="60" smooth="yes"/>
      <point x="101" y="0" smooth="yes"/>
      <point x="180" y="0" type="curve" smooth="yes"/>
      <point x="263" y="0"/>
      <point x="352" y="51"/>
    </contour>
  </outline>
</glyph>
<glyph name="s" format="1">
  <advance width="502"/>
  <unicode hex="0073"/>
  <outline>
    <contour>
      <point x="212" y="448" type="curve" smooth="yes"/>
      <point x="212" y="495" smooth="yes"/>
      <point x="249" y="518" smooth="yes"/>
      <point x="285" y="518" type="curve" smooth="yes"/>
      <point x="319" y="518" smooth="yes"/>
      <point x="352" y="497" smooth="yes"/>
      <point x="352" y="456" type="curve" smooth="yes"/>
      <point x="352" y="431"/>
      <point x="344" y="403"/>
      <point x="318" y="378" type="curve"/>
      <point x="332" y="370" smooth="yes"/>
      <point x="352" y="365" smooth="yes"/>
      <point x="371" y="365" type="curve" smooth="yes"/>
      <point x="425" y="365" smooth="yes"/>
      <point x="458" y="412" smooth="yes"/>
      <point x="458" y="463" type="curve" smooth="yes"/>
      <point x="458" y="524" smooth="yes"/>
      <point x="417" y="583" smooth="yes"/>
      <point x="292" y="583" type="curve" smooth="yes"/>
      <point x="166" y="583" smooth="yes"/>
      <point x="85" y="514" smooth="yes"/>
      <point x="85" y="421" type="curve" smooth="yes"/>
      <point x="85" y="256" smooth="yes"/>
      <point x="315" y="225" smooth="yes"/>
      <point x="315" y="116" type="curve" smooth="yes" name="hr01"/>
      <point x="315" y="68" smooth="yes"/>
      <point x="272" y="45" smooth="yes"/>
      <point x="234" y="45" type="curve" smooth="yes"/>
      <point x="178" y="45" smooth="yes"/>
      <point x="152" y="83" smooth="yes"/>
      <point x="152" y="125" type="curve" smooth="yes"/>
      <point x="152" y="149"/>
      <point x="162" y="176"/>
      <point x="179" y="196" type="curve"/>
      <point x="164" y="202" smooth="yes"/>
      <point x="148" y="204" smooth="yes"/>
      <point x="136" y="204" type="curve" smooth="yes"/>
      <point x="82" y="204" smooth="yes"/>
      <point x="38" y="164" smooth="yes"/>
      <point x="38" y="103" type="curve" smooth="yes"/>
      <point x="38" y="35" smooth="yes"/>
      <point x="106" y="-20" smooth="yes"/>
      <point x="232" y="-20" type="curve" smooth="yes"/>
      <point x="358" y="-20" smooth="yes"/>
      <point x="446" y="43" smooth="yes"/>
      <point x="446" y="143" type="curve" smooth="yes"/>
      <point x="446" y="294" smooth="yes"/>
      <point x="212" y="326" smooth="yes"/>
    </contour>
  </outline>
</glyph>
<glyph name="v" format="1">
  <advance width="516"/>
  <unicode hex="0076"/>
  <outline>
    <contour>
      <point x="266" y="0" type="curve" name="hr00"/>
      <point x="345" y="215" smooth="yes"/>
      <point x="506" y="414" smooth="yes"/>
      <point x="506" y="508" type="curve" smooth="yes"/>
      <point x="506" y="543"/>
      <point x="482" y="569"/>
      <point x="424" y="599" type="curve"/>
      <point x="424" y="500"/>
      <point x="324" y="289"/>
      <point x="246" y="138" type="curve"/>
      <point x="200" y="397" smooth="yes"/>
      <point x="218" y="586" smooth="yes"/>
      <point x="129" y="586" type="curve" smooth="yes"/>
      <point x="89" y="586"/>
      <point x="61" y="577"/>
      <point x="29" y="560" type="curve"/>
      <point x="97" y="450"/>
      <point x="114" y="182"/>
      <point x="160" y="1" type="curve"/>
      <point x="163" y="-10" smooth="yes"/>
      <point x="177" y="-14" smooth="yes"/>
      <point x="194" y="-14" type="curve" smooth="yes"/>
      <point x="222" y="-14"/>
      <point x="257" y="-4"/>
    </contour>
  </outline>
</glyph>
<glyph name="z" format="1">
  <advance width="495"/>
  <unicode hex="007A"/>
  <outline>
    <contour>
      <point x="83" y="571" type="curve"/>
      <point x="78" y="552" smooth="yes"/>
      <point x="75" y="533" smooth="yes"/>
      <point x="75" y="515" type="curve" smooth="yes"/>
      <point x="75" y="459" smooth="yes"/>
      <point x="93" y="440" smooth="yes"/>
      <point x="146" y="440" type="curve" smooth="yes"/>
      <point x="182" y="440"/>
      <point x="260" y="453"/>
      <point x="346" y="459" type="curve"/>
      <point x="278" y="361"/>
      <point x="177" y="236"/>
      <point x="56" y="106" type="curve"/>
      <point x="15" y="91"/>
      <point x="-8" y="57"/>
      <point x="-20" y="-13" type="curve"/>
      <point x="27" y="3" smooth="yes"/>
      <point x="73" y="9" smooth="yes"/>
      <point x="126" y="9" type="curve" smooth="yes" name="hr01"/>
      <point x="222" y="9" smooth="yes"/>
      <point x="335" y="-12" smooth="yes"/>
      <point x="384" y="-12" type="curve" smooth="yes"/>
      <point x="447" y="-12" smooth="yes"/>
      <point x="465" y="15" smooth="yes"/>
      <point x="465" y="63" type="curve" smooth="yes"/>
      <point x="465" y="82"/>
      <point x="463" y="103"/>
      <point x="460" y="122" type="curve"/>
      <point x="409" y="113" smooth="yes"/>
      <point x="357" y="110" smooth="yes"/>
      <point x="308" y="110" type="curve" smooth="yes"/>
      <point x="260" y="110"/>
      <point x="216" y="112"/>
      <point x="173" y="114" type="curve"/>
      <point x="316" y="303" smooth="yes"/>
      <point x="495" y="441" smooth="yes"/>
      <point x="495" y="526" type="curve" smooth="yes"/>
      <point x="495" y="554"/>
      <point x="479" y="584"/>
      <point x="435" y="624" type="curve"/>
      <point x="431" y="606"/>
      <point x="421" y="583"/>
      <point x="407" y="556" type="curve"/>
      <point x="369" y="553" smooth="yes"/>
      <point x="330" y="552" smooth="yes"/>
      <point x="293" y="552" type="curve" smooth="yes"/>
      <point x="221" y="552"/>
      <point x="151" y="558"/>
    </contour>
  </outline>
</glyph>
<glyph name="asciitilde" format="1">
  <advance width="620"/>
  <unicode hex="007E"/>
  <outline>
    <contour>
      <point x="421" y="281" type="curve" name="hr00"/>
      <point x="569" y="281"/>
      <point x="576" y="365"/>
      <point x="576" y="457" type="curve"/>
      <point x="546" y="429" smooth="yes"/>
      <point x="487" y="414" smooth="yes"/>
      <point x="434" y="414" type="curve" smooth="yes"/>
      <point x="369" y="414" smooth="yes"/>
      <point x="283" y="445" smooth="yes"/>
      <point x="199" y="445" type="curve" smooth="yes"/>
      <point x="51" y="445"/>
      <point x="44" y="361"/>
      <point x="44" y="269" type="curve"/>
      <point x="74" y="297" smooth="yes"/>
      <point x="133" y="312" smooth="yes"/>
      <point x="186" y="312" type="curve" smooth="yes"/>
      <point x="251" y="312" smooth="yes"/>
      <point x="337" y="281" smooth="yes"/>
    </contour>
  </outline>
</glyph>
<glyph name="sterling" format="1">
  <advance width="620"/>
  <unicode hex="00A3"/>
  <outline>
    <contour>
      <point x="406" y="297" type="curve" smooth="yes"/>
      <point x="437" y="297"/>
      <point x="461" y="294"/>
      <point x="472" y="288" type="curve"/>
      <point x="457" y="359" smooth="yes"/>
      <point x="427" y="377" smooth="yes"/>
      <point x="374" y="377" type="curve" smooth="yes"/>
      <point x="341" y="377"/>
      <point x="307" y="372"/>
      <point x="271" y="366" type="curve"/>
      <point x="287" y="491" smooth="yes"/>
      <point x="312" y="641" smooth="yes"/>
      <point x="387" y="641" type="curve" smooth="yes"/>
      <point x="422" y="641" smooth="yes"/>
      <point x="433" y="614" smooth="yes"/>
      <point x="433" y="588" type="curve" smooth="yes"/>
      <point x="433" y="554"/>
      <point x="410" y="518"/>
      <point x="383" y="500" type="curve"/>
      <point x="397" y="495" smooth="yes"/>
      <point x="412" y="493" smooth="yes"/>
      <point x="424" y="493" type="curve" smooth="yes"/>
      <point x="500" y="493" smooth="yes"/>
      <point x="539" y="550" smooth="yes"/>
      <point x="539" y="601" type="curve" smooth="yes"/>
      <point x="539" y="664" smooth="yes"/>
      <point x="499" y="719" smooth="yes"/>
      <point x="395" y="719" type="curve" smooth="yes"/>
      <point x="269" y="719"/>
      <point x="188" y="614"/>
      <point x="144" y="348" type="curve"/>
      <point x="128" y="342" smooth="yes"/>
      <point x="75" y="339" smooth="yes"/>
      <point x="64" y="339" type="curve" smooth="yes"/>
      <point x="52" y="339"/>
      <point x="40" y="340"/>
      <point x="28" y="340" type="curve"/>
      <point x="33" y="280" smooth="yes"/>
      <point x="57" y="256" smooth="yes"/>
      <point x="101" y="256" type="curve" smooth="yes"/>
      <point x="109" y="256"/>
      <point x="120" y="257"/>
      <point x="132" y="258" type="curve"/>
      <point x="124" y="195"/>
      <point x="116" y="130"/>
      <point x="100" y="88" type="curve"/>
      <point x="25" y="54"/>
      <point x="20" y="-19"/>
      <point x="20" y="-21" type="curve"/>
      <point x="73" y="-4" smooth="yes"/>
      <point x="133" y="1" smooth="yes"/>
      <point x="187" y="1" type="curve" smooth="yes"/>
      <point x="283" y="1" smooth="yes"/>
      <point x="368" y="-19" smooth="yes"/>
      <point x="407" y="-19" type="curve" smooth="yes" name="hr01"/>
      <point x="497" y="-19"/>
      <point x="516" y="33"/>
      <point x="521" y="130" type="curve"/>
      <point x="470" y="108" smooth="yes"/>
      <point x="414" y="101" smooth="yes"/>
      <point x="358" y="101" type="curve" smooth="yes"/>
      <point x="302" y="101"/>
      <point x="246" y="105"/>
      <point x="192" y="105" type="curve"/>
      <point x="226" y="142"/>
      <point x="245" y="203"/>
      <point x="259" y="280" type="curve"/>
      <point x="309" y="289" smooth="yes"/>
      <point x="362" y="297" smooth="yes"/>
    </contour>
  </outline>
</glyph>
<glyph name="dieresis" format="1">
  <advance width="450"/>
  <unicode hex="00A8"/>
  <outline>
    <contour>
      <point x="203" y="671" type="curve" name="hr00"/>
      <point x="211" y="695" smooth="yes"/>
      <point x="217" y="718" smooth="yes"/>
      <point x="217" y="742" type="curve" smooth="yes"/>
      <point x="217" y="803" smooth="yes"/>
      <point x="170" y="814" smooth="yes"/>
      <point x="123" y="814" type="curve" smooth="yes"/>
      <point x="108" y="814"/>
      <point x="91" y="812"/>
      <point x="79" y="810" type="curve"/>
      <point x="71" y="786" smooth="yes"/>
      <point x="65" y="763" smooth="yes"/>
      <point x="65" y="739" type="curve" smooth="yes"/>
      <point x="65" y="678" smooth="yes"/>
      <point x="112" y="667" smooth="yes"/>
      <point x="159" y="667" type="curve" smooth="yes"/>
      <point x="174" y="667"/>
      <point x="191" y="669"/>
    </contour>
    <contour>
      <point x="428" y="671" type="curve"/>
      <point x="436" y="695" smooth="yes"/>
      <point x="442" y="718" smooth="yes"/>
      <point x="442" y="742" type="curve" smooth="yes"/>
      <point x="442" y="803" smooth="yes"/>
      <point x="395" y="814" smooth="yes"/>
      <point x="348" y="814" type="curve" smooth="yes"/>
      <point x="333" y="814"/>
      <point x="316" y="812"/>
      <point x="304" y="810" type="curve"/>
      <point x="296" y="786" smooth="yes"/>
      <point x="290" y="763" smooth="yes"/>
      <point x="290" y="739" type="curve" smooth="yes"/>
      <point x="290" y="678" smooth="yes"/>
      <point x="337" y="667" smooth="yes"/>
      <point x="384" y="667" type="curve" smooth="yes"/>
      <point x="399" y="667"/>
      <point x="416" y="669"/>
    </contour>
  </outline>
</glyph>
<glyph name="degree" format="1">
  <advance width="404"/>
  <unicode hex="00B0"/>
  <outline>
    <contour>
      <point x="231" y="784" type="curve" smooth="yes" name="hr00"/>
      <point x="99" y="784" smooth="yes"/>
      <point x="30" y="690" smooth="yes"/>
      <point x="30" y="597" type="curve" smooth="yes"/>
      <point x="30" y="488" smooth="yes"/>
      <point x="103" y="450" smooth="yes"/>
      <point x="173" y="450" type="curve" smooth="yes"/>
      <point x="305" y="450" smooth="yes"/>
      <point x="374" y="543" smooth="yes"/>
      <point x="374" y="637" type="curve" smooth="yes"/>
      <point x="374" y="746" smooth="yes"/>
      <point x="301" y="784" smooth="yes"/>
    </contour>
    <contour>
      <point x="212" y="719" type="curve" smooth="yes"/>
      <point x="241" y="719" smooth="yes"/>
      <point x="270" y="693" smooth="yes"/>
      <point x="270" y="621" type="curve" smooth="yes"/>
      <point x="270" y="569" smooth="yes"/>
      <point x="245" y="515" smooth="yes"/>
      <point x="193" y="515" type="curve" smooth="yes"/>
      <point x="164" y="515" smooth="yes"/>
      <point x="135" y="538" smooth="yes"/>
      <point x="135" y="613" type="curve" smooth="yes"/>
      <point x="135" y="665" smooth="yes"/>
      <point x="160" y="719" smooth="yes"/>
    </contour>
  </outline>
</glyph>
<glyph name="acute" format="1">
  <advance width="372"/>
  <unicode hex="00B4"/>
  <outline>
    <contour>
      <point x="88" y="652" type="curve" name="hr00"/>
      <point x="91" y="637"/>
      <point x="109" y="623"/>
      <point x="130" y="619" type="curve"/>
      <point x="174" y="668"/>
      <point x="261" y="736"/>
      <point x="352" y="760" type="curve"/>
      <point x="349" y="827"/>
      <point x="308" y="855"/>
      <point x="289" y="867" type="curve"/>
      <point x="210" y="835"/>
      <point x="121" y="727"/>
    </contour>
  </outline>
</glyph>
<glyph name="paragraph" format="1">
  <advance width="620"/>
  <unicode hex="00B6"/>
  <outline>
    <contour>
      <point x="474" y="-329" type="curve"/>
      <point x="472" y="-300" smooth="yes"/>
      <point x="470" y="-270" smooth="yes"/>
      <point x="470" y="-239" type="curve" smooth="yes"/>
      <point x="470" y="22" smooth="yes"/>
      <point x="544" y="479" smooth="yes"/>
      <point x="544" y="602" type="curve" smooth="yes" name="hr01"/>
      <point x="544" y="745" smooth="yes"/>
      <point x="465" y="812" smooth="yes"/>
      <point x="331" y="812" type="curve" smooth="yes"/>
      <point x="157" y="812" smooth="yes"/>
      <point x="72" y="689" smooth="yes"/>
      <point x="72" y="547" type="curve" smooth="yes"/>
      <point x="72" y="407"/>
      <point x="177" y="274"/>
      <point x="384" y="191" type="curve"/>
      <point x="357" y="-37" smooth="yes"/>
      <point x="343" y="-128" smooth="yes"/>
      <point x="343" y="-191" type="curve" smooth="yes" name="hr02"/>
      <point x="343" y="-303"/>
      <point x="373" y="-324"/>
    </contour>
    <contour>
      <point x="333" y="732" type="curve" smooth="yes"/>
      <point x="368" y="732"/>
      <point x="406" y="716"/>
      <point x="426" y="682" type="curve" name="hr03"/>
      <point x="426" y="603"/>
      <point x="407" y="427"/>
      <point x="396" y="316" type="curve"/>
      <point x="295" y="367" smooth="yes"/>
      <point x="217" y="473" smooth="yes"/>
      <point x="217" y="576" type="curve" smooth="yes"/>
      <point x="217" y="664" smooth="yes"/>
      <point x="250" y="732" smooth="yes"/>
    </contour>
    <contour>
      <point x="171" y="-198" type="curve" smooth="yes" name="hr04"/>
      <point x="171" y="-301"/>
      <point x="231" y="-315"/>
      <point x="319" y="-319" type="curve"/>
      <point x="302" y="-299" smooth="yes"/>
      <point x="291" y="-267" smooth="yes"/>
      <point x="291" y="-205" type="curve" smooth="yes"/>
      <point x="291" y="-75"/>
      <point x="308" y="3"/>
      <point x="326" y="150" type="curve"/>
      <point x="292" y="167"/>
      <point x="250" y="192"/>
      <point x="217" y="223" type="curve" name="hr05"/>
      <point x="197" y="64" smooth="yes"/>
      <point x="171" y="-100" smooth="yes"/>
    </contour>
  </outline>
</glyph>
<glyph name="guillemotright" format="1">
  <advance width="638"/>
  <unicode hex="00BB"/>
  <outline>
    <contour>
      <point x="578" y="327" type="line" name="hr00"/>
      <point x="510" y="360" smooth="yes"/>
      <point x="513" y="574" smooth="yes"/>
      <point x="429" y="574" type="curve" smooth="yes"/>
      <point x="395" y="574"/>
      <point x="361" y="555"/>
      <point x="314" y="519" type="curve"/>
      <point x="374" y="497"/>
      <point x="407" y="383"/>
      <point x="447" y="317" type="curve"/>
      <point x="394" y="251"/>
      <point x="337" y="137"/>
      <point x="271" y="115" type="curve"/>
      <point x="310" y="79" smooth="yes"/>
      <point x="340" y="60" smooth="yes"/>
      <point x="374" y="60" type="curve" smooth="yes"/>
      <point x="458" y="60"/>
      <point x="501" y="274"/>
      <point x="575" y="307" type="curve"/>
    </contour>
    <contour>
      <point x="337" y="327" type="line"/>
      <point x="269" y="360" smooth="yes"/>
      <point x="272" y="574" smooth="yes"/>
      <point x="188" y="574" type="curve" smooth="yes"/>
      <point x="154" y="574"/>
      <point x="120" y="555"/>
      <point x="73" y="519" type="curve"/>
      <point x="133" y="497"/>
      <point x="166" y="383"/>
      <point x="206" y="317" type="curve"/>
      <point x="153" y="251"/>
      <point x="96" y="137"/>
      <point x="30" y="115" type="curve"/>
      <point x="69" y="79" smooth="yes"/>
      <point x="99" y="60" smooth="yes"/>
      <point x="133" y="60" type="curve" smooth="yes"/>
      <point x="217" y="60"/>
      <point x="260" y="274"/>
      <point x="334" y="307" type="curve"/>
    </contour>
  </outline>
</glyph>
<glyph name="AE" format="1">
  <advance width="941"/>
  <unicode hex="00C6"/>
  <outline>
    <contour>
      <point x="352" y="-12" type="curve" name="hr00"/>
      <point x="410" y="1" smooth="yes"/>
      <point x="467" y="5" smooth="yes"/>
      <point x="519" y="5" type="curve" smooth="yes"/>
      <point x="624" y="5" smooth="yes"/>
      <point x="711" y="-12" smooth="yes"/>
      <point x="757" y="-12" type="curve" smooth="yes"/>
      <point x="828" y="-12"/>
      <point x="880" y="44"/>
      <point x="892" y="144" type="curve"/>
      <point x="826" y="122"/>
      <point x="686" y="107"/>
      <point x="544" y="106" type="curve"/>
      <point x="545" y="184"/>
      <point x="552" y="262"/>
      <point x="560" y="335" type="curve"/>
      <point x="614" y="334" smooth="yes"/>
      <point x="692" y="334" smooth="yes"/>
      <point x="719" y="334" type="curve" smooth="yes"/>
      <point x="760" y="334" smooth="yes"/>
      <point x="787" y="357" smooth="yes"/>
      <point x="787" y="425" type="curve" smooth="yes"/>
      <point x="787" y="435"/>
      <point x="786" y="445"/>
      <point x="785" y="455" type="curve"/>
      <point x="752" y="428" smooth="yes"/>
      <point x="701" y="422" smooth="yes"/>
      <point x="650" y="422" type="curve" smooth="yes"/>
      <point x="570" y="422" type="line"/>
      <point x="584" y="525"/>
      <point x="598" y="612"/>
      <point x="600" y="669" type="curve"/>
      <point x="635" y="667" smooth="yes"/>
      <point x="669" y="666" smooth="yes"/>
      <point x="700" y="666" type="curve" smooth="yes"/>
      <point x="798" y="666"/>
      <point x="910" y="674"/>
      <point x="926" y="799" type="curve"/>
      <point x="842" y="783" smooth="yes"/>
      <point x="746" y="775" smooth="yes"/>
      <point x="649" y="775" type="curve" smooth="yes"/>
      <point x="571" y="775"/>
      <point x="433" y="780"/>
      <point x="358" y="790" type="curve"/>
      <point x="306" y="681" type="line" smooth="yes"/>
      <point x="226" y="512" smooth="yes"/>
      <point x="-25" y="91" smooth="yes"/>
      <point x="-25" y="44" type="curve" smooth="yes"/>
      <point x="-25" y="20"/>
      <point x="-6" y="-6"/>
      <point x="71" y="-33" type="curve"/>
      <point x="148" y="215"/>
      <point x="343" y="528"/>
      <point x="412" y="695" type="curve"/>
      <point x="424" y="691"/>
      <point x="444" y="687"/>
      <point x="467" y="684" type="curve"/>
      <point x="465" y="602"/>
      <point x="455" y="512"/>
      <point x="444" y="425" type="curve"/>
      <point x="404" y="425" type="line" smooth="yes"/>
      <point x="330" y="425" smooth="yes"/>
      <point x="270" y="412" smooth="yes"/>
      <point x="270" y="332" type="curve" smooth="yes"/>
      <point x="270" y="321"/>
      <point x="271" y="310"/>
      <point x="272" y="299" type="curve"/>
      <point x="324" y="322"/>
      <point x="379" y="330"/>
      <point x="431" y="333" type="curve"/>
      <point x="416" y="223" smooth="yes"/>
      <point x="401" y="126" smooth="yes"/>
      <point x="401" y="69" type="curve" smooth="yes"/>
      <point x="367" y="39"/>
      <point x="356" y="5"/>
    </contour>
  </outline>
</glyph>
<glyph name="dotlessi" format="1">
  <advance width="321"/>
  <unicode hex="0131"/>
  <outline>
    <contour>
      <point x="207" y="88" type="curve" smooth="yes"/>
      <point x="209" y="275" smooth="yes"/>
      <point x="257" y="438" smooth="yes"/>
      <point x="257" y="497" type="curve" smooth="yes" name="hr01"/>
      <point x="257" y="558" smooth="yes"/>
      <point x="232" y="583" smooth="yes"/>
      <point x="154" y="583" type="curve" smooth="yes"/>
      <point x="142" y="583"/>
      <point x="124" y="582"/>
      <point x="113" y="581" type="curve"/>
      <point x="119" y="548" smooth="yes"/>
      <point x="119" y="513" smooth="yes"/>
      <point x="119" y="479" type="curve" smooth="yes"/>
      <point x="119" y="377" smooth="yes"/>
      <point x="87" y="252" smooth="yes"/>
      <point x="87" y="164" type="curve" smooth="yes" name="hr02"/>
      <point x="87" y="67"/>
      <point x="110" y="13"/>
      <point x="219" y="-15" type="curve"/>
      <point x="211" y="3" smooth="yes"/>
      <point x="207" y="40" smooth="yes"/>
    </contour>
  </outline>
</glyph>
<glyph name="kgreenlandic" format="1">
  <advance width="554"/>
  <unicode hex="0138"/>
  <outline>
    <contour>
      <point x="120" y="493" type="curve" smooth="yes"/>
      <point x="118" y="306" smooth="yes"/>
      <point x="70" y="143" smooth="yes"/>
      <point x="70" y="84" type="curve" smooth="yes" name="hr01"/>
      <point x="70" y="23" smooth="yes"/>
      <point x="95" y="-2" smooth="yes"/>
      <point x="173" y="-2" type="curve" smooth="yes"/>
      <point x="185" y="-2"/>
      <point x="203" y="-1"/>
      <point x="214" y="0" type="curve"/>
      <point x="208" y="33" smooth="yes"/>
      <point x="208" y="68" smooth="yes"/>
      <point x="208" y="102" type="curve" smooth="yes"/>
      <point x="208" y="142"/>
      <point x="213" y="187"/>
      <point x="219" y="231" type="curve"/>
      <point x="260" y="257" type="line"/>
      <point x="314" y="116" smooth="yes"/>
      <point x="377" y="-11" smooth="yes"/>
      <point x="491" y="-11" type="curve" smooth="yes" name="hr02"/>
      <point x="516" y="-11"/>
      <point x="537" y="-7"/>
      <point x="555" y="-1" type="curve"/>
      <point x="507" y="35"/>
      <point x="413" y="175"/>
      <point x="363" y="322" type="curve"/>
      <point x="471" y="393" smooth="yes"/>
      <point x="548" y="452" smooth="yes"/>
      <point x="548" y="507" type="curve" smooth="yes"/>
      <point x="548" y="540"/>
      <point x="534" y="573"/>
      <point x="518" y="599" type="curve"/>
      <point x="483" y="542"/>
      <point x="385" y="437"/>
      <point x="232" y="326" type="curve"/>
      <point x="236" y="358" smooth="yes"/>
      <point x="240" y="390" smooth="yes"/>
      <point x="240" y="417" type="curve" smooth="yes"/>
      <point x="240" y="514"/>
      <point x="217" y="568"/>
      <point x="108" y="596" type="curve"/>
      <point x="116" y="578" smooth="yes"/>
      <point x="120" y="541" smooth="yes"/>
    </contour>
  </outline>
</glyph>
<glyph name="dotaccent" format="1">
  <advance width="263"/>
  <unicode hex="02D9"/>
  <outline>
    <contour>
      <point x="195" y="651" type="curve" name="hr00"/>
      <point x="203" y="680" smooth="yes"/>
      <point x="213" y="707" smooth="yes"/>
      <point x="213" y="736" type="curve" smooth="yes"/>
      <point x="213" y="786" smooth="yes"/>
      <point x="176" y="798" smooth="yes"/>
      <point x="139" y="798" type="curve" smooth="yes"/>
      <point x="115" y="798"/>
      <point x="89" y="794"/>
      <point x="68" y="788" type="curve"/>
      <point x="60" y="759" smooth="yes"/>
      <point x="50" y="732" smooth="yes"/>
      <point x="50" y="703" type="curve" smooth="yes"/>
      <point x="50" y="653" smooth="yes"/>
      <point x="87" y="641" smooth="yes"/>
      <point x="124" y="641" type="curve" smooth="yes"/>
      <point x="148" y="641"/>
      <point x="174" y="645"/>
    </contour>
  </outline>
</glyph>
<glyph name="tilde" format="1">
  <advance width="450"/>
  <unicode hex="02DC"/>
  <outline>
    <contour>
      <point x="358" y="665" type="curve"/>
      <point x="400" y="665"/>
      <point x="448" y="694"/>
      <point x="460" y="794" type="curve"/>
      <point x="457" y="810"/>
      <point x="446" y="816"/>
      <point x="433" y="818" type="curve"/>
      <point x="420" y="797" smooth="yes"/>
      <point x="394" y="775" smooth="yes"/>
      <point x="358" y="775" type="curve" smooth="yes"/>
      <point x="317" y="775" smooth="yes"/>
      <point x="269" y="803" smooth="yes"/>
      <point x="215" y="803" type="curve" smooth="yes" name="hr01"/>
      <point x="173" y="803"/>
      <point x="125" y="774"/>
      <point x="113" y="674" type="curve"/>
      <point x="116" y="658"/>
      <point x="127" y="652"/>
      <point x="140" y="650" type="curve"/>
      <point x="153" y="671" smooth="yes"/>
      <point x="179" y="693" smooth="yes"/>
      <point x="215" y="693" type="curve" smooth="yes"/>
      <point x="256" y="693" smooth="yes"/>
      <point x="304" y="665" smooth="yes"/>
    </contour>
  </outline>
</glyph>
<glyph name="emdash" format="1">
  <advance width="665"/>
  <unicode hex="2014"/>
  <outline>
    <contour>
      <point x="517" y="385" type="curve" smooth="yes" name="hr00"/>
      <point x="401" y="385" smooth="yes"/>
      <point x="310" y="371" smooth="yes"/>
      <point x="217" y="371" type="curve" smooth="yes"/>
      <point x="150" y="371"/>
      <point x="90" y="374"/>
      <point x="21" y="382" type="curve"/>
      <point x="21" y="374" smooth="yes"/>
      <point x="20" y="367" smooth="yes"/>
      <point x="20" y="359" type="curve" smooth="yes"/>
      <point x="20" y="296" smooth="yes"/>
      <point x="36" y="250" smooth="yes"/>
      <point x="148" y="250" type="curve" smooth="yes"/>
      <point x="264" y="250" smooth="yes"/>
      <point x="355" y="264" smooth="yes"/>
      <point x="448" y="264" type="curve" smooth="yes"/>
      <point x="515" y="264"/>
      <point x="575" y="261"/>
      <point x="644" y="253" type="curve"/>
      <point x="644" y="261" smooth="yes"/>
      <point x="645" y="268" smooth="yes"/>
      <point x="645" y="276" type="curve" smooth="yes"/>
      <point x="645" y="339" smooth="yes"/>
      <point x="629" y="385" smooth="yes"/>
    </contour>
  </outline>
</glyph>
<glyph name="quoteright" format="1">
  <advance width="248"/>
  <unicode hex="2019"/>
  <outline>
    <contour>
      <point x="99" y="842" type="curve" name="hr00"/>
      <point x="108" y="817" smooth="yes"/>
      <point x="114" y="792" smooth="yes"/>
      <point x="114" y="767" type="curve" smooth="yes"/>
      <point x="114" y="709"/>
      <point x="87" y="651"/>
      <point x="35" y="605" type="curve"/>
      <point x="64" y="560" type="line"/>
      <point x="186" y="623" smooth="yes"/>
      <point x="248" y="706" smooth="yes"/>
      <point x="248" y="791" type="curve" smooth="yes"/>
      <point x="248" y="841" smooth="yes"/>
      <point x="211" y="853" smooth="yes"/>
      <point x="174" y="853" type="curve" smooth="yes"/>
      <point x="150" y="853"/>
      <point x="120" y="848"/>
    </contour>
  </outline>
</glyph>
<glyph name="quotedblbase" format="1">
  <advance width="411"/>
  <unicode hex="201E"/>
  <outline>
    <contour>
      <point x="45" y="135" type="curve" name="hr00"/>
      <point x="54" y="110" smooth="yes"/>
      <point x="60" y="85" smooth="yes"/>
      <point x="60" y="60" type="curve" smooth="yes"/>
      <point x="60" y="2"/>
      <point x="33" y="-56"/>
      <point x="-19" y="-102" type="curve"/>
      <point x="10" y="-147" type="line"/>
      <point x="132" y="-84" smooth="yes"/>
      <point x="194" y="-1" smooth="yes"/>
      <point x="194" y="84" type="curve" smooth="yes"/>
      <point x="194" y="134" smooth="yes"/>
      <point x="157" y="146" smooth="yes"/>
      <point x="120" y="146" type="curve" smooth="yes"/>
      <point x="96" y="146"/>
      <point x="66" y="141"/>
    </contour>
    <contour>
      <point x="247" y="135" type="curve"/>
      <point x="256" y="110" smooth="yes"/>
      <point x="262" y="85" smooth="yes"/>
      <point x="262" y="60" type="curve" smooth="yes"/>
      <point x="262" y="2"/>
      <point x="235" y="-56"/>
      <point x="183" y="-102" type="curve"/>
      <point x="212" y="-147" type="line"/>
      <point x="334" y="-84" smooth="yes"/>
      <point x="396" y="-1" smooth="yes"/>
      <point x="396" y="84" type="curve" smooth="yes"/>
      <point x="396" y="134" smooth="yes"/>
      <point x="359" y="146" smooth="yes"/>
      <point x="322" y="146" type="curve" smooth="yes"/>
      <point x="298" y="146"/>
      <point x="268" y="141"/>
    </contour>
  </outline>
</glyph>
<glyph name="dagger" format="1">
  <advance width="390"/>
  <unicode hex="2020"/>
  <outline>
    <contour>
      <point x="66" y="-68" type="curve" smooth="yes"/>
      <point x="66" y="-137"/>
      <point x="72" y="-180"/>
      <point x="212" y="-186" type="curve"/>
      <point x="208" y="-160" smooth="yes"/>
      <point x="208" y="-132" smooth="yes"/>
      <point x="208" y="-104" type="curve" smooth="yes"/>
      <point x="208" y="-11"/>
      <point x="273" y="428"/>
      <point x="285" y="526" type="curve"/>
      <point x="392" y="526" type="line" smooth="yes"/>
      <point x="433" y="526"/>
      <point x="491" y="549"/>
      <point x="491" y="635" type="curve"/>
      <point x="300" y="635" type="line"/>
      <point x="307" y="684" smooth="yes"/>
      <point x="312" y="724" smooth="yes"/>
      <point x="312" y="749" type="curve" smooth="yes" name="hr01"/>
      <point x="312" y="818"/>
      <point x="306" y="861"/>
      <point x="166" y="867" type="curve"/>
      <point x="168" y="841" smooth="yes"/>
      <point x="170" y="813" smooth="yes"/>
      <point x="170" y="785" type="curve" smooth="yes"/>
      <point x="170" y="738"/>
      <point x="167" y="688"/>
      <point x="162" y="635" type="curve"/>
      <point x="99" y="635" type="line" smooth="yes"/>
      <point x="25" y="635" smooth="yes"/>
      <point x="-35" y="622" smooth="yes"/>
      <point x="-35" y="542" type="curve" smooth="yes"/>
      <point x="-35" y="531"/>
      <point x="-32" y="502"/>
      <point x="-31" y="491" type="curve"/>
      <point x="30" y="518"/>
      <point x="94" y="525"/>
      <point x="151" y="526" type="curve"/>
      <point x="121" y="277" smooth="yes"/>
      <point x="66" y="14" smooth="yes"/>
    </contour>
  </outline>
</glyph>
<glyph name="daggerdbl" format="1">
  <advance width="390"/>
  <unicode hex="2021"/>
  <outline>
    <contour>
      <point x="66" y="-68" type="curve" smooth="yes" name="hr00"/>
      <point x="66" y="-137"/>
      <point x="72" y="-180"/>
      <point x="212" y="-186" type="curve"/>
      <point x="208" y="-160" smooth="yes"/>
      <point x="208" y="-132" smooth="yes"/>
      <point x="208" y="-104" type="curve" smooth="yes"/>
      <point x="208" y="-80"/>
      <point x="212" y="-33"/>
      <point x="219" y="24" type="curve"/>
      <point x="295" y="24" type="line" smooth="yes"/>
      <point x="369" y="24" smooth="yes"/>
      <point x="429" y="37" smooth="yes"/>
      <point x="429" y="117" type="curve" smooth="yes"/>
      <point x="429" y="128"/>
      <point x="426" y="157"/>
      <point x="425" y="168" type="curve"/>
      <point x="359" y="139"/>
      <point x="292" y="133"/>
      <point x="232" y="132" type="curve"/>
      <point x="252" y="287"/>
      <point x="278" y="467"/>
      <point x="285" y="526" type="curve"/>
      <point x="392" y="526" type="line" smooth="yes"/>
      <point x="433" y="526"/>
      <point x="491" y="549"/>
      <point x="491" y="635" type="curve"/>
      <point x="300" y="635" type="line"/>
      <point x="307" y="684" smooth="yes"/>
      <point x="312" y="724" smooth="yes"/>
      <point x="312" y="749" type="curve" smooth="yes"/>
      <point x="312" y="818"/>
      <point x="306" y="861"/>
      <point x="166" y="867" type="curve"/>
      <point x="168" y="841" smooth="yes"/>
      <point x="170" y="813" smooth="yes"/>
      <point x="170" y="785" type="curve" smooth="yes"/>
      <point x="170" y="738"/>
      <point x="167" y="688"/>
      <point x="162" y="635" type="curve"/>
      <point x="99" y="635" type="line" smooth="yes"/>
      <point x="25" y="635" smooth="yes"/>
      <point x="-35" y="622" smooth="yes"/>
      <point x="-35" y="542" type="curve" smooth="yes"/>
      <point x="-35" y="531"/>
      <point x="-32" y="502"/>
      <point x="-31" y="491" type="curve"/>
      <point x="30" y="518"/>
      <point x="94" y="525"/>
      <point x="151" y="526" type="curve"/>
      <point x="135" y="388"/>
      <point x="110" y="246"/>
      <point x="92" y="132" type="curve"/>
      <point x="55" y="132" smooth="yes"/>
      <point x="19" y="133" smooth="yes"/>
      <point x="2" y="133" type="curve" smooth="yes"/>
      <point x="-39" y="133"/>
      <point x="-97" y="110"/>
      <point x="-97" y="24" type="curve"/>
      <point x="75" y="24" type="line"/>
      <point x="69" y="-15" smooth="yes"/>
      <point x="66" y="-47" smooth="yes"/>
    </contour>
  </outline>
</glyph>
<glyph name="twoinferior" format="1">
  <advance width="372"/>
  <unicode hex="2082"/>
  <outline>
    <contour>
      <point x="-10" y="-170" type="curve" name="hr00"/>
      <point x="32" y="-152" smooth="yes"/>
      <point x="66" y="-149" smooth="yes"/>
      <point x="92" y="-149" type="curve" smooth="yes"/>
      <point x="132" y="-149" smooth="yes"/>
      <point x="210" y="-160" smooth="yes"/>
      <point x="246" y="-160" type="curve" smooth="yes"/>
      <point x="300" y="-160"/>
      <point x="315" y="-127"/>
      <point x="319" y="-52" type="curve"/>
      <point x="276" y="-71" smooth="yes"/>
      <point x="231" y="-74" smooth="yes"/>
      <point x="199" y="-74" type="curve" smooth="yes"/>
      <point x="185" y="-74"/>
      <point x="163" y="-74"/>
      <point x="142" y="-73" type="curve"/>
      <point x="265" y="5" smooth="yes"/>
      <point x="321" y="96" smooth="yes"/>
      <point x="321" y="169" type="curve" smooth="yes"/>
      <point x="321" y="250" smooth="yes"/>
      <point x="250" y="287" smooth="yes"/>
      <point x="178" y="287" type="curve" smooth="yes"/>
      <point x="81" y="287" smooth="yes"/>
      <point x="37" y="231" smooth="yes"/>
      <point x="37" y="180" type="curve" smooth="yes"/>
      <point x="37" y="127" smooth="yes"/>
      <point x="67" y="100" smooth="yes"/>
      <point x="112" y="100" type="curve" smooth="yes"/>
      <point x="122" y="100"/>
      <point x="132" y="101"/>
      <point x="142" y="104" type="curve"/>
      <point x="127" y="117" smooth="yes"/>
      <point x="117" y="140" smooth="yes"/>
      <point x="117" y="165" type="curve" smooth="yes"/>
      <point x="117" y="196" smooth="yes"/>
      <point x="139" y="218" smooth="yes"/>
      <point x="171" y="218" type="curve" smooth="yes"/>
      <point x="195" y="218" smooth="yes"/>
      <point x="221" y="199" smooth="yes"/>
      <point x="221" y="162" type="curve" smooth="yes"/>
      <point x="221" y="73"/>
      <point x="122" y="-21"/>
      <point x="59" y="-75" type="curve"/>
      <point x="-3" y="-89"/>
      <point x="-10" y="-154"/>
    </contour>
  </outline>
</glyph>
<glyph name="fourinferior" format="1">
  <advance width="346"/>
  <unicode hex="2084"/>
  <outline>
    <contour>
      <point x="23" y="-61" type="curve" name="hr00"/>
      <point x="34" y="-65"/>
      <point x="120" y="-70"/>
      <point x="190" y="-71" type="curve"/>
      <point x="187" y="-84" smooth="yes"/>
      <point x="186" y="-100" smooth="yes"/>
      <point x="186" y="-108" type="curve" smooth="yes"/>
      <point x="186" y="-140" smooth="yes"/>
      <point x="199" y="-161" smooth="yes"/>
      <point x="244" y="-161" type="curve" smooth="yes"/>
      <point x="253" y="-161"/>
      <point x="260" y="-161"/>
      <point x="280" y="-158" type="curve"/>
      <point x="274" y="-129"/>
      <point x="274" y="-115"/>
      <point x="274" y="-72" type="curve"/>
      <point x="313" y="-69" smooth="yes"/>
      <point x="326" y="-54" smooth="yes"/>
      <point x="326" y="-24" type="curve" smooth="yes"/>
      <point x="326" y="-16"/>
      <point x="324" y="-1"/>
      <point x="319" y="19" type="curve"/>
      <point x="319" y="19"/>
      <point x="301" y="17"/>
      <point x="280" y="15" type="curve"/>
      <point x="283" y="32" smooth="yes"/>
      <point x="286" y="49" smooth="yes"/>
      <point x="286" y="68" type="curve" smooth="yes"/>
      <point x="286" y="98" smooth="yes"/>
      <point x="280" y="109" smooth="yes"/>
      <point x="246" y="109" type="curve" smooth="yes"/>
      <point x="223" y="109"/>
      <point x="218" y="108"/>
      <point x="207" y="105" type="curve"/>
      <point x="207" y="62"/>
      <point x="205" y="32"/>
      <point x="201" y="7" type="curve"/>
      <point x="174" y="5"/>
      <point x="114" y="2"/>
      <point x="86" y="2" type="curve"/>
      <point x="148" y="93" smooth="yes"/>
      <point x="228" y="188" smooth="yes"/>
      <point x="228" y="238" type="curve" smooth="yes"/>
      <point x="228" y="285"/>
      <point x="154" y="314"/>
      <point x="154" y="314" type="curve"/>
      <point x="135" y="224" smooth="yes"/>
      <point x="92" y="134" smooth="yes"/>
      <point x="34" y="44" type="curve" smooth="yes"/>
      <point x="8" y="4" smooth="yes"/>
      <point x="5" y="-4" smooth="yes"/>
      <point x="5" y="-16" type="curve" smooth="yes"/>
      <point x="5" y="-43"/>
      <point x="23" y="-61"/>
    </contour>
  </outline>
</glyph>
<glyph name="sixinferior" format="1">
  <advance width="381"/>
  <unicode hex="2086"/>
  <outline>
    <contour>
      <point x="233" y="142" type="curve" smooth="yes" name="hr00"/>
      <point x="247" y="132" smooth="yes"/>
      <point x="261" y="128" smooth="yes"/>
      <point x="274" y="128" type="curve" smooth="yes"/>
      <point x="310" y="128" smooth="yes"/>
      <point x="341" y="159" smooth="yes"/>
      <point x="341" y="199" type="curve" smooth="yes"/>
      <point x="341" y="243" smooth="yes"/>
      <point x="302" y="287" smooth="yes"/>
      <point x="228" y="287" type="curve" smooth="yes"/>
      <point x="97" y="287" smooth="yes"/>
      <point x="30" y="145" smooth="yes"/>
      <point x="30" y="17" type="curve" smooth="yes"/>
      <point x="30" y="-116" smooth="yes"/>
      <point x="100" y="-169" smooth="yes"/>
      <point x="177" y="-169" type="curve" smooth="yes"/>
      <point x="261" y="-169" smooth="yes"/>
      <point x="335" y="-119" smooth="yes"/>
      <point x="335" y="-26" type="curve" smooth="yes"/>
      <point x="335" y="59" smooth="yes"/>
      <point x="281" y="96" smooth="yes"/>
      <point x="212" y="96" type="curve" smooth="yes"/>
      <point x="184" y="96"/>
      <point x="152" y="90"/>
      <point x="123" y="78" type="curve"/>
      <point x="135" y="180" smooth="yes"/>
      <point x="182" y="225" smooth="yes"/>
      <point x="216" y="225" type="curve" smooth="yes"/>
      <point x="245" y="225" smooth="yes"/>
      <point x="256" y="209" smooth="yes"/>
      <point x="256" y="190" type="curve" smooth="yes"/>
      <point x="256" y="173"/>
      <point x="247" y="154"/>
    </contour>
    <contour>
      <point x="243" y="-29" type="curve" smooth="yes"/>
      <point x="243" y="-78" smooth="yes"/>
      <point x="211" y="-110" smooth="yes"/>
      <point x="179" y="-110" type="curve" smooth="yes"/>
      <point x="147" y="-110" smooth="yes"/>
      <point x="116" y="-79" smooth="yes"/>
      <point x="116" y="-1" type="curve" smooth="yes"/>
      <point x="116" y="7"/>
      <point x="116" y="16"/>
      <point x="117" y="25" type="curve"/>
      <point x="139" y="35" smooth="yes"/>
      <point x="162" y="40" smooth="yes"/>
      <point x="180" y="40" type="curve" smooth="yes"/>
      <point x="218" y="40" smooth="yes"/>
      <point x="243" y="17" smooth="yes"/>
    </contour>
  </outline>
</glyph>
<glyph name="nineinferior" format="1">
  <advance width="386"/>
  <unicode hex="2089"/>
  <outline>
    <contour>
      <point x="128" y="-24" type="curve"/>
      <point x="114" y="-14" smooth="yes"/>
      <point x="100" y="-10" smooth="yes"/>
      <point x="87" y="-10" type="curve" smooth="yes"/>
      <point x="51" y="-10" smooth="yes"/>
      <point x="20" y="-41" smooth="yes"/>
      <point x="20" y="-81" type="curve" smooth="yes"/>
      <point x="20" y="-125" smooth="yes"/>
      <point x="64" y="-169" smooth="yes"/>
      <point x="138" y="-169" type="curve" smooth="yes"/>
      <point x="269" y="-169" smooth="yes"/>
      <point x="336" y="-27" smooth="yes"/>
      <point x="336" y="101" type="curve" smooth="yes"/>
      <point x="336" y="234" smooth="yes"/>
      <point x="266" y="287" smooth="yes"/>
      <point x="189" y="287" type="curve" smooth="yes"/>
      <point x="115" y="287" smooth="yes"/>
      <point x="36" y="237" smooth="yes"/>
      <point x="36" y="144" type="curve" smooth="yes" name="hr01"/>
      <point x="36" y="59" smooth="yes"/>
      <point x="95" y="22" smooth="yes"/>
      <point x="164" y="22" type="curve" smooth="yes"/>
      <point x="192" y="22"/>
      <point x="225" y="32"/>
      <point x="248" y="50" type="curve"/>
      <point x="239" y="-70" smooth="yes"/>
      <point x="189" y="-112" smooth="yes"/>
      <point x="145" y="-112" type="curve" smooth="yes"/>
      <point x="117" y="-112" smooth="yes"/>
      <point x="106" y="-95" smooth="yes"/>
      <point x="106" y="-74" type="curve" smooth="yes" name="hr02"/>
      <point x="106" y="-56"/>
      <point x="114" y="-36"/>
    </contour>
    <contour>
      <point x="123" y="147" type="curve" smooth="yes" name="hr03"/>
      <point x="123" y="196" smooth="yes"/>
      <point x="155" y="228" smooth="yes"/>
      <point x="187" y="228" type="curve" smooth="yes"/>
      <point x="239" y="228"/>
      <point x="249" y="159"/>
      <point x="249" y="103" type="curve"/>
      <point x="227" y="83" smooth="yes"/>
      <point x="204" y="78" smooth="yes"/>
      <point x="186" y="78" type="curve" smooth="yes"/>
      <point x="148" y="78" smooth="yes"/>
      <point x="123" y="101" smooth="yes"/>
    </contour>
  </outline>
</glyph>
<glyph name="trademark" format="1">
  <advance width="1010"/>
  <unicode hex="2122"/>
  <outline>
    <contour>
      <point x="797" y="723" type="line"/>
      <point x="792" y="651" smooth="yes"/>
      <point x="772" y="586" smooth="yes"/>
      <point x="772" y="518" type="curve" smooth="yes" name="hr01"/>
      <point x="772" y="467"/>
      <point x="794" y="435"/>
      <point x="885" y="413" type="curve"/>
      <point x="876" y="434" smooth="yes"/>
      <point x="871" y="460" smooth="yes"/>
      <point x="871" y="489" type="curve" smooth="yes"/>
      <point x="871" y="610" smooth="yes"/>
      <point x="910" y="773" smooth="yes"/>
      <point x="910" y="843" type="curve" smooth="yes" name="hr02"/>
      <point x="910" y="887"/>
      <point x="905" y="913"/>
      <point x="812" y="920" type="curve"/>
      <point x="806" y="866"/>
      <point x="745" y="745"/>
      <point x="666" y="631" type="curve"/>
      <point x="565" y="895" smooth="yes"/>
      <point x="555" y="920" smooth="yes"/>
      <point x="494" y="920" type="curve" smooth="yes"/>
      <point x="477" y="920"/>
      <point x="448" y="912"/>
      <point x="429" y="899" type="curve"/>
      <point x="440" y="889"/>
      <point x="455" y="869"/>
      <point x="467" y="849" type="curve"/>
      <point x="467" y="755" smooth="yes"/>
      <point x="428" y="553" smooth="yes"/>
      <point x="428" y="477" type="curve" smooth="yes"/>
      <point x="428" y="453"/>
      <point x="440" y="433"/>
      <point x="518" y="433" type="curve"/>
      <point x="517" y="449" smooth="yes"/>
      <point x="516" y="472" smooth="yes"/>
      <point x="516" y="489" type="curve" smooth="yes"/>
      <point x="516" y="557"/>
      <point x="525" y="626"/>
      <point x="537" y="708" type="curve"/>
      <point x="560" y="655"/>
      <point x="580" y="604"/>
      <point x="598" y="553" type="curve"/>
      <point x="606" y="544" smooth="yes"/>
      <point x="618" y="539" smooth="yes"/>
      <point x="640" y="539" type="curve" smooth="yes"/>
      <point x="653" y="539"/>
      <point x="670" y="540"/>
      <point x="689" y="549" type="curve"/>
    </contour>
    <contour>
      <point x="50" y="866" type="curve" smooth="yes"/>
      <point x="50" y="839" smooth="yes"/>
      <point x="57" y="810" smooth="yes"/>
      <point x="88" y="810" type="curve" smooth="yes"/>
      <point x="107" y="810"/>
      <point x="142" y="811"/>
      <point x="170" y="812" type="curve"/>
      <point x="156" y="713" smooth="yes"/>
      <point x="137" y="607" smooth="yes"/>
      <point x="137" y="518" type="curve" smooth="yes"/>
      <point x="137" y="467"/>
      <point x="160" y="436"/>
      <point x="251" y="413" type="curve"/>
      <point x="241" y="434" smooth="yes"/>
      <point x="236" y="460" smooth="yes"/>
      <point x="236" y="489" type="curve" smooth="yes"/>
      <point x="236" y="603"/>
      <point x="255" y="710"/>
      <point x="275" y="818" type="curve"/>
      <point x="371" y="827"/>
      <point x="406" y="857"/>
      <point x="415" y="920" type="curve"/>
      <point x="342" y="905" smooth="yes"/>
      <point x="270" y="897" smooth="yes"/>
      <point x="204" y="897" type="curve" smooth="yes"/>
      <point x="160" y="897"/>
      <point x="112" y="901"/>
      <point x="58" y="910" type="curve"/>
      <point x="52" y="894" smooth="yes"/>
      <point x="50" y="881" smooth="yes"/>
    </contour>
  </outline>
</glyph>
<glyph name="partialdiff" format="1">
  <advance width="627"/>
  <unicode hex="2202"/>
  <outline>
    <contour>
      <point x="325" y="741" type="curve" smooth="yes"/>
      <point x="407" y="741" smooth="yes"/>
      <point x="458" y="624" smooth="yes"/>
      <point x="458" y="482" type="curve" smooth="yes"/>
      <point x="458" y="472"/>
      <point x="457" y="462"/>
      <point x="457" y="452" type="curve"/>
      <point x="413" y="478" smooth="yes"/>
      <point x="363" y="491" smooth="yes"/>
      <point x="315" y="491" type="curve" smooth="yes"/>
      <point x="179" y="491" smooth="yes"/>
      <point x="50" y="393" smooth="yes"/>
      <point x="50" y="220" type="curve" smooth="yes"/>
      <point x="50" y="57" smooth="yes"/>
      <point x="162" y="-15" smooth="yes"/>
      <point x="266" y="-15" type="curve" smooth="yes"/>
      <point x="512" y="-15" smooth="yes"/>
      <point x="587" y="243" smooth="yes"/>
      <point x="587" y="470" type="curve" smooth="yes"/>
      <point x="587" y="715" smooth="yes"/>
      <point x="444" y="819" smooth="yes"/>
      <point x="327" y="819" type="curve" smooth="yes"/>
      <point x="218" y="819" smooth="yes"/>
      <point x="171" y="760" smooth="yes"/>
      <point x="171" y="702" type="curve" smooth="yes" name="hr01"/>
      <point x="171" y="647" smooth="yes"/>
      <point x="214" y="593" smooth="yes"/>
      <point x="288" y="593" type="curve" smooth="yes"/>
      <point x="300" y="593"/>
      <point x="315" y="595"/>
      <point x="329" y="600" type="curve"/>
      <point x="302" y="618" smooth="yes"/>
      <point x="279" y="654" smooth="yes"/>
      <point x="279" y="688" type="curve" smooth="yes"/>
      <point x="279" y="714" smooth="yes"/>
      <point x="293" y="741" smooth="yes"/>
    </contour>
    <contour>
      <point x="288" y="57" type="curve" smooth="yes"/>
      <point x="220" y="57" smooth="yes"/>
      <point x="194" y="125" smooth="yes"/>
      <point x="194" y="207" type="curve" smooth="yes" name="hr02"/>
      <point x="194" y="338" smooth="yes"/>
      <point x="268" y="424" smooth="yes"/>
      <point x="360" y="424" type="curve" smooth="yes"/>
      <point x="390" y="424"/>
      <point x="422" y="415"/>
      <point x="455" y="394" type="curve"/>
      <point x="442" y="217" smooth="yes"/>
      <point x="388" y="57" smooth="yes"/>
    </contour>
  </outline>
</glyph>
<glyph name="integral" format="1">
  <advance width="454"/>
  <unicode hex="222B"/>
  <outline>
    <contour>
      <point x="54" y="-258" type="curve" smooth="yes" name="hr00"/>
      <point x="427" y="-258" smooth="yes"/>
      <point x="208" y="741" smooth="yes"/>
      <point x="405" y="741" type="curve" smooth="yes"/>
      <point x="437" y="741" smooth="yes"/>
      <point x="451" y="714" smooth="yes"/>
      <point x="451" y="688" type="curve" smooth="yes"/>
      <point x="451" y="654"/>
      <point x="428" y="618"/>
      <point x="401" y="600" type="curve"/>
      <point x="415" y="595" smooth="yes"/>
      <point x="430" y="593" smooth="yes"/>
      <point x="442" y="593" type="curve" smooth="yes"/>
      <point x="516" y="593" smooth="yes"/>
      <point x="559" y="647" smooth="yes"/>
      <point x="559" y="702" type="curve" smooth="yes"/>
      <point x="559" y="760" smooth="yes"/>
      <point x="512" y="819" smooth="yes"/>
      <point x="403" y="819" type="curve" smooth="yes"/>
      <point x="39" y="819" smooth="yes"/>
      <point x="247" y="-180" smooth="yes"/>
      <point x="49" y="-180" type="curve" smooth="yes"/>
      <point x="17" y="-180" smooth="yes"/>
      <point x="3" y="-153" smooth="yes"/>
      <point x="3" y="-127" type="curve" smooth="yes"/>
      <point x="3" y="-93"/>
      <point x="26" y="-57"/>
      <point x="53" y="-39" type="curve"/>
      <point x="39" y="-34" smooth="yes"/>
      <point x="24" y="-32" smooth="yes"/>
      <point x="12" y="-32" type="curve" smooth="yes"/>
      <point x="-62" y="-32" smooth="yes"/>
      <point x="-105" y="-86" smooth="yes"/>
      <point x="-105" y="-141" type="curve" smooth="yes"/>
      <point x="-105" y="-199" smooth="yes"/>
      <point x="-58" y="-258" smooth="yes"/>
    </contour>
  </outline>
</glyph>
<glyph name="apple" format="1">
  <advance width="903"/>
  <outline>
    <contour>
      <point x="546" y="-89" type="curve" smooth="yes"/>
      <point x="549" y="-88" smooth="yes"/>
      <point x="553" y="-88" smooth="yes"/>
      <point x="556" y="-88" type="curve" smooth="yes"/>
      <point x="564" y="-88" smooth="yes"/>
      <point x="571" y="-89" smooth="yes"/>
      <point x="579" y="-89" type="curve" smooth="yes"/>
      <point x="605" y="-89" smooth="yes"/>
      <point x="607" y="-70" smooth="yes"/>
      <point x="624" y="-60" type="curve" smooth="yes"/>
      <point x="639" y="-52" smooth="yes"/>
      <point x="660" y="-51" smooth="yes"/>
      <point x="673" y="-42" type="curve" smooth="yes"/>
      <point x="686" y="-33" smooth="yes"/>
      <point x="691" y="-11" smooth="yes"/>
      <point x="703" y="1" type="curve" smooth="yes"/>
      <point x="713" y="11" smooth="yes"/>
      <point x="729" y="12" smooth="yes"/>
      <point x="738" y="23" type="curve" smooth="yes"/>
      <point x="749" y="36" smooth="yes"/>
      <point x="748" y="60" smooth="yes"/>
      <point x="756" y="74" type="curve" smooth="yes"/>
      <point x="766" y="91" smooth="yes"/>
      <point x="790" y="92" smooth="yes"/>
      <point x="790" y="120" type="curve" smooth="yes"/>
      <point x="790" y="130" smooth="yes"/>
      <point x="788" y="141" smooth="yes"/>
      <point x="788" y="152" type="curve" smooth="yes"/>
      <point x="788" y="177"/>
      <point x="810" y="180"/>
      <point x="813" y="200" type="curve"/>
      <point x="813" y="214" smooth="yes"/>
      <point x="802" y="229" smooth="yes"/>
      <point x="802" y="244" type="curve" smooth="yes" name="hr01"/>
      <point x="802" y="257" smooth="yes"/>
      <point x="813" y="269" smooth="yes"/>
      <point x="813" y="283" type="curve" smooth="yes"/>
      <point x="813" y="305" smooth="yes"/>
      <point x="789" y="319" smooth="yes"/>
      <point x="789" y="344" type="curve" smooth="yes"/>
      <point x="789" y="352" smooth="yes"/>
      <point x="790" y="360" smooth="yes"/>
      <point x="790" y="369" type="curve" smooth="yes" name="hr02"/>
      <point x="790" y="397" smooth="yes"/>
      <point x="765" y="400" smooth="yes"/>
      <point x="754" y="418" type="curve" smooth="yes"/>
      <point x="748" y="428" smooth="yes"/>
      <point x="753" y="450" smooth="yes"/>
      <point x="747" y="460" type="curve" smooth="yes"/>
      <point x="736" y="479" smooth="yes"/>
      <point x="710" y="483" smooth="yes"/>
      <point x="696" y="496" type="curve" smooth="yes"/>
      <point x="684" y="508" smooth="yes"/>
      <point x="686" y="526" smooth="yes"/>
      <point x="673" y="535" type="curve" smooth="yes"/>
      <point x="659" y="545" smooth="yes"/>
      <point x="643" y="542" smooth="yes"/>
      <point x="628" y="550" type="curve" smooth="yes"/>
      <point x="609" y="560" smooth="yes"/>
      <point x="607" y="586" smooth="yes"/>
      <point x="580" y="586" type="curve" smooth="yes"/>
      <point x="570" y="586" smooth="yes"/>
      <point x="560" y="583" smooth="yes"/>
      <point x="552" y="583" type="curve" smooth="yes"/>
      <point x="528" y="583" smooth="yes"/>
      <point x="521" y="608" smooth="yes"/>
      <point x="495" y="608" type="curve" smooth="yes"/>
      <point x="481" y="608" smooth="yes"/>
      <point x="464" y="596" smooth="yes"/>
      <point x="450" y="596" type="curve" smooth="yes"/>
      <point x="437" y="596" smooth="yes"/>
      <point x="419" y="608" smooth="yes"/>
      <point x="406" y="608" type="curve" smooth="yes"/>
      <point x="384" y="608" smooth="yes"/>
      <point x="376" y="585" smooth="yes"/>
      <point x="351" y="585" type="curve" smooth="yes"/>
      <point x="342" y="585" smooth="yes"/>
      <point x="333" y="587" smooth="yes"/>
      <point x="325" y="587" type="curve" smooth="yes"/>
      <point x="300" y="586" smooth="yes"/>
      <point x="293" y="558" smooth="yes"/>
      <point x="276" y="549" type="curve" smooth="yes"/>
      <point x="260" y="541" smooth="yes"/>
      <point x="238" y="543" smooth="yes"/>
      <point x="225" y="532" type="curve" smooth="yes"/>
      <point x="214" y="522" smooth="yes"/>
      <point x="210" y="501" smooth="yes"/>
      <point x="200" y="491" type="curve" smooth="yes"/>
      <point x="189" y="480" smooth="yes"/>
      <point x="168" y="480" smooth="yes"/>
      <point x="160" y="467" type="curve" smooth="yes"/>
      <point x="153" y="456" smooth="yes"/>
      <point x="156" y="435" smooth="yes"/>
      <point x="149" y="424" type="curve" smooth="yes"/>
      <point x="139" y="407" smooth="yes"/>
      <point x="114" y="401" smooth="yes"/>
      <point x="114" y="376" type="curve" smooth="yes"/>
      <point x="114" y="368" smooth="yes"/>
      <point x="115" y="359" smooth="yes"/>
      <point x="115" y="351" type="curve" smooth="yes"/>
      <point x="115" y="332" smooth="yes"/>
      <point x="90" y="311" smooth="yes"/>
      <point x="90" y="290" type="curve" smooth="yes" name="hr03"/>
      <point x="90" y="275" smooth="yes"/>
      <point x="102" y="265" smooth="yes"/>
      <point x="102" y="248" type="curve" smooth="yes"/>
      <point x="102" y="233" smooth="yes"/>
      <point x="90" y="218" smooth="yes"/>
      <point x="90" y="204" type="curve" smooth="yes"/>
      <point x="90" y="183" smooth="yes"/>
      <point x="115" y="168" smooth="yes"/>
      <point x="115" y="149" type="curve" smooth="yes"/>
      <point x="115" y="141" smooth="yes"/>
      <point x="112" y="133" smooth="yes"/>
      <point x="112" y="124" type="curve" smooth="yes"/>
      <point x="112" y="98" smooth="yes"/>
      <point x="138" y="87" smooth="yes"/>
      <point x="146" y="75" type="curve" smooth="yes"/>
      <point x="157" y="57" smooth="yes"/>
      <point x="150" y="46" smooth="yes"/>
      <point x="161" y="28" type="curve" smooth="yes"/>
      <point x="171" y="12" smooth="yes"/>
      <point x="187" y="15" smooth="yes"/>
      <point x="200" y="4" type="curve" smooth="yes"/>
      <point x="213" y="-7" smooth="yes"/>
      <point x="212" y="-31" smooth="yes"/>
      <point x="230" y="-42" type="curve" smooth="yes"/>
      <point x="246" y="-52" smooth="yes"/>
      <point x="253" y="-43" smooth="yes"/>
      <point x="276" y="-55" type="curve" smooth="yes"/>
      <point x="289" y="-62" smooth="yes"/>
      <point x="301" y="-91" smooth="yes"/>
      <point x="327" y="-91" type="curve" smooth="yes"/>
      <point x="334" y="-91" smooth="yes"/>
      <point x="343" y="-89" smooth="yes"/>
      <point x="351" y="-89" type="curve" smooth="yes"/>
      <point x="375" y="-89" smooth="yes"/>
      <point x="386" y="-114" smooth="yes"/>
      <point x="406" y="-114" type="curve" smooth="yes"/>
      <point x="421" y="-114" smooth="yes"/>
      <point x="436" y="-102" smooth="yes"/>
      <point x="452" y="-102" type="curve" smooth="yes"/>
      <point x="467" y="-102" smooth="yes"/>
      <point x="483" y="-112" smooth="yes"/>
      <point x="498" y="-112" type="curve" smooth="yes"/>
      <point x="515" y="-112" smooth="yes"/>
      <point x="528" y="-94" smooth="yes"/>
    </contour>
    <contour>
      <point x="520" y="3" type="curve" smooth="yes"/>
      <point x="507" y="0" smooth="yes"/>
      <point x="497" y="-13" smooth="yes"/>
      <point x="485" y="-13" type="curve" smooth="yes"/>
      <point x="474" y="-13" smooth="yes"/>
      <point x="463" y="-6" smooth="yes"/>
      <point x="452" y="-6" type="curve" smooth="yes" name="hr04"/>
      <point x="440" y="-6"/>
      <point x="428" y="-15"/>
      <point x="416" y="-15" type="curve" name="hr05"/>
      <point x="402" y="-13" smooth="yes"/>
      <point x="395" y="3" smooth="yes"/>
      <point x="376" y="3" type="curve" smooth="yes"/>
      <point x="371" y="3" smooth="yes"/>
      <point x="366" y="2" smooth="yes"/>
      <point x="361" y="2" type="curve" smooth="yes"/>
      <point x="342" y="2" smooth="yes"/>
      <point x="335" y="23" smooth="yes"/>
      <point x="324" y="28" type="curve" smooth="yes"/>
      <point x="307" y="37" smooth="yes"/>
      <point x="302" y="29" smooth="yes"/>
      <point x="291" y="37" type="curve" smooth="yes"/>
      <point x="278" y="45" smooth="yes"/>
      <point x="279" y="63" smooth="yes"/>
      <point x="269" y="71" type="curve" smooth="yes"/>
      <point x="260" y="79" smooth="yes"/>
      <point x="248" y="77" smooth="yes"/>
      <point x="241" y="88" type="curve" smooth="yes"/>
      <point x="233" y="101" smooth="yes"/>
      <point x="238" y="110" smooth="yes"/>
      <point x="230" y="123" type="curve" smooth="yes"/>
      <point x="225" y="132" smooth="yes"/>
      <point x="205" y="139" smooth="yes"/>
      <point x="205" y="158" type="curve" smooth="yes"/>
      <point x="205" y="163" smooth="yes"/>
      <point x="207" y="169" smooth="yes"/>
      <point x="207" y="174" type="curve" smooth="yes"/>
      <point x="207" y="189" smooth="yes"/>
      <point x="190" y="200" smooth="yes"/>
      <point x="190" y="215" type="curve" smooth="yes" name="hr06"/>
      <point x="190" y="226" smooth="yes"/>
      <point x="198" y="237" smooth="yes"/>
      <point x="198" y="248" type="curve" smooth="yes"/>
      <point x="198" y="260" smooth="yes"/>
      <point x="190" y="267" smooth="yes"/>
      <point x="190" y="278" type="curve" smooth="yes"/>
      <point x="190" y="294" smooth="yes"/>
      <point x="207" y="308" smooth="yes"/>
      <point x="207" y="324" type="curve" smooth="yes"/>
      <point x="207" y="329" smooth="yes"/>
      <point x="206" y="335" smooth="yes"/>
      <point x="206" y="340" type="curve" smooth="yes"/>
      <point x="206" y="359" smooth="yes"/>
      <point x="225" y="363" smooth="yes"/>
      <point x="232" y="376" type="curve" smooth="yes"/>
      <point x="237" y="384" smooth="yes"/>
      <point x="235" y="399" smooth="yes"/>
      <point x="240" y="407" type="curve" smooth="yes"/>
      <point x="247" y="416" smooth="yes"/>
      <point x="261" y="416" smooth="yes"/>
      <point x="269" y="424" type="curve" smooth="yes"/>
      <point x="277" y="432" smooth="yes"/>
      <point x="279" y="447" smooth="yes"/>
      <point x="288" y="454" type="curve" smooth="yes"/>
      <point x="297" y="462" smooth="yes"/>
      <point x="313" y="460" smooth="yes"/>
      <point x="324" y="466" type="curve" smooth="yes"/>
      <point x="337" y="472" smooth="yes"/>
      <point x="341" y="493" smooth="yes"/>
      <point x="360" y="493" type="curve" smooth="yes"/>
      <point x="366" y="493" smooth="yes"/>
      <point x="371" y="492" smooth="yes"/>
      <point x="377" y="492" type="curve" smooth="yes"/>
      <point x="396" y="492" smooth="yes"/>
      <point x="403" y="509" smooth="yes"/>
      <point x="419" y="509" type="curve" smooth="yes"/>
      <point x="429" y="509" smooth="yes"/>
      <point x="441" y="500" smooth="yes"/>
      <point x="451" y="500" type="curve" smooth="yes"/>
      <point x="461" y="500" smooth="yes"/>
      <point x="473" y="509" smooth="yes"/>
      <point x="484" y="509" type="curve" smooth="yes"/>
      <point x="503" y="509" smooth="yes"/>
      <point x="506" y="491" smooth="yes"/>
      <point x="525" y="491" type="curve" smooth="yes"/>
      <point x="531" y="491" smooth="yes"/>
      <point x="538" y="493" smooth="yes"/>
      <point x="545" y="493" type="curve" smooth="yes"/>
      <point x="565" y="493" smooth="yes"/>
      <point x="566" y="474" smooth="yes"/>
      <point x="579" y="467" type="curve" smooth="yes"/>
      <point x="591" y="460" smooth="yes"/>
      <point x="602" y="464" smooth="yes"/>
      <point x="612" y="456" type="curve" smooth="yes"/>
      <point x="622" y="449" smooth="yes"/>
      <point x="620" y="436" smooth="yes"/>
      <point x="629" y="428" type="curve" smooth="yes"/>
      <point x="639" y="418" smooth="yes"/>
      <point x="658" y="415" smooth="yes"/>
      <point x="666" y="402" type="curve" smooth="yes"/>
      <point x="670" y="394" smooth="yes"/>
      <point x="667" y="379" smooth="yes"/>
      <point x="671" y="371" type="curve" smooth="yes"/>
      <point x="679" y="357" smooth="yes"/>
      <point x="697" y="356" smooth="yes"/>
      <point x="697" y="335" type="curve" smooth="yes"/>
      <point x="697" y="329" smooth="yes"/>
      <point x="696" y="323" smooth="yes"/>
      <point x="696" y="318" type="curve" smooth="yes"/>
      <point x="696" y="300" smooth="yes"/>
      <point x="714" y="289" smooth="yes"/>
      <point x="714" y="273" type="curve" smooth="yes"/>
      <point x="714" y="264" smooth="yes"/>
      <point x="706" y="254" smooth="yes"/>
      <point x="706" y="245" type="curve" smooth="yes"/>
      <point x="706" y="234"/>
      <point x="714" y="223"/>
      <point x="714" y="213" type="curve"/>
      <point x="711" y="199" smooth="yes"/>
      <point x="696" y="196" smooth="yes"/>
      <point x="696" y="177" type="curve" smooth="yes"/>
      <point x="696" y="171" smooth="yes"/>
      <point x="697" y="164" smooth="yes"/>
      <point x="697" y="157" type="curve" smooth="yes"/>
      <point x="697" y="133" smooth="yes"/>
      <point x="681" y="136" smooth="yes"/>
      <point x="673" y="122" type="curve" smooth="yes"/>
      <point x="667" y="111" smooth="yes"/>
      <point x="667" y="94" smooth="yes"/>
      <point x="660" y="84" type="curve" smooth="yes"/>
      <point x="653" y="76" smooth="yes"/>
      <point x="641" y="76" smooth="yes"/>
      <point x="634" y="68" type="curve" smooth="yes"/>
      <point x="626" y="60" smooth="yes"/>
      <point x="622" y="45" smooth="yes"/>
      <point x="612" y="38" type="curve" smooth="yes"/>
      <point x="603" y="31"/>
      <point x="587" y="30"/>
      <point x="577" y="24" type="curve"/>
      <point x="565" y="19" smooth="yes"/>
      <point x="564" y="3" smooth="yes"/>
      <point x="544" y="3" type="curve" smooth="yes"/>
      <point x="539" y="3" smooth="yes"/>
      <point x="534" y="4" smooth="yes"/>
      <point x="529" y="4" type="curve" smooth="yes"/>
      <point x="526" y="4" smooth="yes"/>
      <point x="523" y="4" smooth="yes"/>
    </contour>
    <contour>
      <point x="452" y="417" type="curve" smooth="yes"/>
      <point x="358" y="417" smooth="yes"/>
      <point x="282" y="341" smooth="yes"/>
      <point x="282" y="247" type="curve" smooth="yes"/>
      <point x="282" y="153" smooth="yes"/>
      <point x="358" y="77" smooth="yes"/>
      <point x="452" y="77" type="curve" smooth="yes"/>
      <point x="546" y="77" smooth="yes"/>
      <point x="622" y="153" smooth="yes"/>
      <point x="622" y="247" type="curve" smooth="yes"/>
      <point x="622" y="341" smooth="yes"/>
      <point x="546" y="417" smooth="yes"/>
    </contour>
    <contour>
      <point x="495" y="292" type="line"/>
      <point x="495" y="117" type="line"/>
      <point x="410" y="117" type="line"/>
      <point x="410" y="292" type="line"/>
      <point x="356" y="292" type="line"/>
      <point x="356" y="360" type="line"/>
      <point x="547" y="360" type="line"/>
      <point x="547" y="292" type="line"/>
    </contour>
  </outline>
</glyph>
<glyph name="breve.case" format="1">
  <advance width="355"/>
  <outline>
    <contour>
      <point x="20" y="1027" type="curve" name="hr00"/>
      <point x="20" y="919" smooth="yes"/>
      <point x="94" y="873" smooth="yes"/>
      <point x="169" y="873" type="curve" smooth="yes"/>
      <point x="244" y="873"/>
      <point x="312" y="916"/>
      <point x="335" y="990" type="curve"/>
      <point x="335" y="1021"/>
      <point x="301" y="1056"/>
      <point x="263" y="1056" type="curve"/>
      <point x="259" y="1006" smooth="yes"/>
      <point x="205" y="968" smooth="yes"/>
      <point x="159" y="968" type="curve" smooth="yes"/>
      <point x="121" y="968"/>
      <point x="90" y="988"/>
      <point x="90" y="1028" type="curve"/>
      <point x="82" y="1037" smooth="yes"/>
      <point x="71" y="1041" smooth="yes"/>
      <point x="60" y="1041" type="curve" smooth="yes"/>
      <point x="45" y="1041"/>
      <point x="31" y="1035"/>
    </contour>
  </outline>
</glyph>
<glyph name="f.alt" format="1">
  <advance width="408"/>
  <outline>
    <contour>
      <point x="409" y="584" type="curve" name="hr00"/>
      <point x="376" y="557" smooth="yes"/>
      <point x="325" y="551" smooth="yes"/>
      <point x="274" y="551" type="curve" smooth="yes"/>
      <point x="260" y="551" type="line"/>
      <point x="285" y="684" smooth="yes"/>
      <point x="327" y="795" smooth="yes"/>
      <point x="399" y="795" type="curve" smooth="yes"/>
      <point x="437" y="795"/>
      <point x="458" y="778"/>
      <point x="471" y="758" type="curve"/>
      <point x="502" y="773" smooth="yes"/>
      <point x="517" y="801" smooth="yes"/>
      <point x="517" y="833" type="curve" smooth="yes"/>
      <point x="517" y="867" smooth="yes"/>
      <point x="488" y="900" smooth="yes"/>
      <point x="430" y="900" type="curve" smooth="yes"/>
      <point x="288" y="900"/>
      <point x="207" y="737"/>
      <point x="161" y="554" type="curve"/>
      <point x="91" y="553" smooth="yes"/>
      <point x="35" y="538" smooth="yes"/>
      <point x="35" y="461" type="curve" smooth="yes"/>
      <point x="35" y="450"/>
      <point x="36" y="439"/>
      <point x="37" y="428" type="curve"/>
      <point x="75" y="445"/>
      <point x="109" y="456"/>
      <point x="141" y="462" type="curve"/>
      <point x="113" y="311" smooth="yes"/>
      <point x="106" y="163" smooth="yes"/>
      <point x="106" y="93" type="curve" smooth="yes"/>
      <point x="106" y="-14"/>
      <point x="145" y="-81"/>
      <point x="246" y="-113" type="curve"/>
      <point x="233" y="-53" smooth="yes"/>
      <point x="227" y="9" smooth="yes"/>
      <point x="227" y="111" type="curve" smooth="yes"/>
      <point x="227" y="160"/>
      <point x="228" y="318"/>
      <point x="248" y="470" type="curve"/>
      <point x="277" y="470" smooth="yes"/>
      <point x="308" y="469" smooth="yes"/>
      <point x="343" y="469" type="curve" smooth="yes"/>
      <point x="384" y="469" smooth="yes"/>
      <point x="411" y="486" smooth="yes"/>
      <point x="411" y="554" type="curve" smooth="yes"/>
      <point x="411" y="564"/>
      <point x="410" y="574"/>
    </contour>
  </outline>
</glyph>
<glyph name="h.circumflex" format="1">
  <advance width="621"/>
  <outline>
    <contour>
      <point x="208" y="309" type="curve"/>
      <point x="225" y="454" smooth="yes"/>
      <point x="254" y="587" smooth="yes"/>
      <point x="254" y="655" type="curve" smooth="yes" name="hr01"/>
      <point x="254" y="749"/>
      <point x="228" y="802"/>
      <point x="124" y="830" type="curve"/>
      <point x="132" y="808" smooth="yes"/>
      <point x="136" y="769" smooth="yes"/>
      <point x="136" y="713" type="curve" smooth="yes"/>
      <point x="136" y="458" smooth="yes"/>
      <point x="65" y="178" smooth="yes"/>
      <point x="65" y="83" type="curve" smooth="yes" name="hr02"/>
      <point x="65" y="21" smooth="yes"/>
      <point x="96" y="-2" smooth="yes"/>
      <point x="172" y="-2" type="curve" smooth="yes"/>
      <point x="184" y="-2"/>
      <point x="198" y="-1"/>
      <point x="214" y="0" type="curve"/>
      <point x="208" y="35" smooth="yes"/>
      <point x="208" y="67" smooth="yes"/>
      <point x="208" y="98" type="curve" smooth="yes"/>
      <point x="208" y="328" smooth="yes"/>
      <point x="318" y="473" smooth="yes"/>
      <point x="379" y="473" type="curve" smooth="yes"/>
      <point x="405" y="473" smooth="yes"/>
      <point x="419" y="450" smooth="yes"/>
      <point x="419" y="407" type="curve" smooth="yes" name="hr03"/>
      <point x="419" y="306" smooth="yes"/>
      <point x="379" y="181" smooth="yes"/>
      <point x="379" y="102" type="curve" smooth="yes" name="hr04"/>
      <point x="379" y="13" smooth="yes"/>
      <point x="425" y="-15" smooth="yes"/>
      <point x="534" y="-15" type="curve" smooth="yes"/>
      <point x="546" y="-15"/>
      <point x="558" y="-15"/>
      <point x="571" y="-14" type="curve"/>
      <point x="532" y="8" smooth="yes"/>
      <point x="514" y="32" smooth="yes"/>
      <point x="514" y="95" type="curve" smooth="yes"/>
      <point x="514" y="211" smooth="yes"/>
      <point x="553" y="322" smooth="yes"/>
      <point x="553" y="435" type="curve" smooth="yes" name="hr05"/>
      <point x="553" y="521" smooth="yes"/>
      <point x="527" y="577" smooth="yes"/>
      <point x="441" y="577" type="curve" smooth="yes"/>
      <point x="364" y="577"/>
      <point x="254" y="464"/>
    </contour>
  </outline>
</glyph>
<glyph name="ringacute" format="1">
  <advance width="339"/>
  <outline>
    <contour>
      <point x="317" y="634" type="curve" name="hr00"/>
      <point x="332" y="679" smooth="yes"/>
      <point x="345" y="721" smooth="yes"/>
      <point x="345" y="765" type="curve" smooth="yes"/>
      <point x="345" y="777"/>
      <point x="343" y="788"/>
      <point x="341" y="797" type="curve"/>
      <point x="378" y="822"/>
      <point x="420" y="843"/>
      <point x="464" y="855" type="curve"/>
      <point x="461" y="922"/>
      <point x="420" y="950"/>
      <point x="401" y="962" type="curve"/>
      <point x="357" y="944"/>
      <point x="311" y="903"/>
      <point x="272" y="857" type="curve"/>
      <point x="259" y="860" smooth="yes"/>
      <point x="245" y="862" smooth="yes"/>
      <point x="232" y="862" type="curve" smooth="yes"/>
      <point x="194" y="862"/>
      <point x="154" y="854"/>
      <point x="122" y="845" type="curve"/>
      <point x="107" y="800" smooth="yes"/>
      <point x="94" y="758" smooth="yes"/>
      <point x="94" y="714" type="curve" smooth="yes"/>
      <point x="94" y="637" smooth="yes"/>
      <point x="152" y="617" smooth="yes"/>
      <point x="207" y="617" type="curve" smooth="yes"/>
      <point x="245" y="617"/>
      <point x="285" y="625"/>
    </contour>
    <contour>
      <point x="252" y="703" type="curve"/>
      <point x="242" y="700" smooth="yes"/>
      <point x="228" y="698" smooth="yes"/>
      <point x="216" y="698" type="curve" smooth="yes"/>
      <point x="197" y="698" smooth="yes"/>
      <point x="177" y="704" smooth="yes"/>
      <point x="177" y="731" type="curve" smooth="yes"/>
      <point x="177" y="746"/>
      <point x="183" y="760"/>
      <point x="187" y="776" type="curve"/>
      <point x="197" y="779" smooth="yes"/>
      <point x="211" y="781" smooth="yes"/>
      <point x="223" y="781" type="curve" smooth="yes"/>
      <point x="242" y="781" smooth="yes"/>
      <point x="262" y="775" smooth="yes"/>
      <point x="262" y="748" type="curve" smooth="yes"/>
      <point x="262" y="733"/>
      <point x="256" y="719"/>
    </contour>
  </outline>
</glyph>
